<svg width="373" height="209" viewBox="0 0 373 209" fill="none" xmlns="http://www.w3.org/2000/svg">
<path d="M13.5025 137.5H3.45135L18.7663 93.1364H30.8537L46.147 137.5H36.0959L24.9833 103.274H24.6367L13.5025 137.5ZM12.8743 120.062H36.6158V127.384H12.8743V120.062ZM62.0252 138.042C59.498 138.042 57.209 137.392 55.1584 136.092C53.1222 134.778 51.5047 132.85 50.3061 130.308C49.1219 127.752 48.5298 124.618 48.5298 120.907C48.5298 117.094 49.1436 113.925 50.3711 111.397C51.5986 108.856 53.2305 106.957 55.2667 105.7C57.3174 104.429 59.563 103.794 62.0036 103.794C63.8665 103.794 65.4189 104.112 66.6609 104.747C67.9173 105.368 68.9281 106.148 69.6935 107.087C70.4734 108.011 71.0655 108.921 71.4698 109.816H71.7514V93.1364H80.9577V137.5H71.8597V132.171H71.4698C71.0366 133.095 70.4228 134.012 69.6286 134.922C68.8487 135.818 67.8306 136.561 66.5742 137.153C65.3323 137.746 63.8159 138.042 62.0252 138.042ZM64.9496 130.698C66.437 130.698 67.6934 130.294 68.7188 129.485C69.7585 128.662 70.5528 127.514 71.1016 126.041C71.6648 124.568 71.9464 122.842 71.9464 120.864C71.9464 118.885 71.672 117.167 71.1232 115.708C70.5745 114.25 69.7802 113.123 68.7404 112.329C67.7006 111.535 66.437 111.137 64.9496 111.137C63.4332 111.137 62.1552 111.549 61.1154 112.372C60.0756 113.195 59.2886 114.336 58.7543 115.795C58.2199 117.253 57.9528 118.943 57.9528 120.864C57.9528 122.799 58.2199 124.51 58.7543 125.998C59.303 127.471 60.0901 128.626 61.1154 129.463C62.1552 130.287 63.4332 130.698 64.9496 130.698ZM100.805 138.042C98.2783 138.042 95.9893 137.392 93.9387 136.092C91.9024 134.778 90.285 132.85 89.0864 130.308C87.9022 127.752 87.3101 124.618 87.3101 120.907C87.3101 117.094 87.9239 113.925 89.1514 111.397C90.3789 108.856 92.0107 106.957 94.047 105.7C96.0976 104.429 98.3432 103.794 100.784 103.794C102.647 103.794 104.199 104.112 105.441 104.747C106.698 105.368 107.708 106.148 108.474 107.087C109.254 108.011 109.846 108.921 110.25 109.816H110.532V93.1364H119.738V137.5H110.64V132.171H110.25C109.817 133.095 109.203 134.012 108.409 134.922C107.629 135.818 106.611 136.561 105.354 137.153C104.113 137.746 102.596 138.042 100.805 138.042ZM103.73 130.698C105.217 130.698 106.474 130.294 107.499 129.485C108.539 128.662 109.333 127.514 109.882 126.041C110.445 124.568 110.727 122.842 110.727 120.864C110.727 118.885 110.452 117.167 109.903 115.708C109.355 114.25 108.56 113.123 107.521 112.329C106.481 111.535 105.217 111.137 103.73 111.137C102.214 111.137 100.935 111.549 99.8957 112.372C98.8559 113.195 98.0689 114.336 97.5345 115.795C97.0002 117.253 96.733 118.943 96.733 120.864C96.733 122.799 97.0002 124.51 97.5345 125.998C98.0833 127.471 98.8704 128.626 99.8957 129.463C100.935 130.287 102.214 130.698 103.73 130.698ZM156.477 138.15C153.069 138.15 150.137 137.428 147.682 135.984C145.241 134.525 143.364 132.503 142.05 129.918C140.75 127.333 140.1 124.358 140.1 120.994C140.1 117.585 140.757 114.596 142.071 112.026C143.4 109.441 145.285 107.426 147.725 105.982C150.166 104.523 153.069 103.794 156.433 103.794C159.336 103.794 161.878 104.321 164.058 105.375C166.239 106.43 167.965 107.91 169.236 109.816C170.506 111.722 171.207 113.961 171.337 116.531H162.629C162.383 114.871 161.733 113.535 160.679 112.524C159.639 111.498 158.275 110.986 156.585 110.986C155.155 110.986 153.906 111.376 152.837 112.156C151.783 112.921 150.96 114.04 150.368 115.513C149.776 116.986 149.48 118.77 149.48 120.864C149.48 122.987 149.769 124.792 150.346 126.279C150.938 127.767 151.769 128.9 152.837 129.68C153.906 130.46 155.155 130.85 156.585 130.85C157.639 130.85 158.585 130.633 159.423 130.2C160.275 129.767 160.975 129.138 161.524 128.315C162.087 127.478 162.455 126.474 162.629 125.304H171.337C171.192 127.846 170.499 130.084 169.257 132.02C168.03 133.94 166.333 135.442 164.167 136.525C162 137.608 159.437 138.15 156.477 138.15ZM192.278 138.15C188.914 138.15 186.004 137.435 183.549 136.005C181.108 134.561 179.223 132.554 177.895 129.983C176.566 127.398 175.902 124.402 175.902 120.994C175.902 117.557 176.566 114.553 177.895 111.982C179.223 109.397 181.108 107.39 183.549 105.96C186.004 104.516 188.914 103.794 192.278 103.794C195.643 103.794 198.546 104.516 200.987 105.96C203.442 107.39 205.333 109.397 206.662 111.982C207.991 114.553 208.655 117.557 208.655 120.994C208.655 124.402 207.991 127.398 206.662 129.983C205.333 132.554 203.442 134.561 200.987 136.005C198.546 137.435 195.643 138.15 192.278 138.15ZM192.322 131.001C193.853 131.001 195.131 130.568 196.156 129.702C197.181 128.821 197.954 127.622 198.474 126.106C199.008 124.589 199.275 122.864 199.275 120.929C199.275 118.993 199.008 117.268 198.474 115.751C197.954 114.235 197.181 113.036 196.156 112.156C195.131 111.275 193.853 110.834 192.322 110.834C190.777 110.834 189.477 111.275 188.423 112.156C187.383 113.036 186.596 114.235 186.061 115.751C185.542 117.268 185.282 118.993 185.282 120.929C185.282 122.864 185.542 124.589 186.061 126.106C186.596 127.622 187.383 128.821 188.423 129.702C189.477 130.568 190.777 131.001 192.322 131.001ZM223.883 118.264V137.5H214.655V104.227H223.45V110.098H223.84C224.576 108.163 225.811 106.632 227.544 105.505C229.277 104.364 231.378 103.794 233.848 103.794C236.158 103.794 238.173 104.299 239.891 105.31C241.61 106.321 242.946 107.765 243.899 109.643C244.852 111.506 245.328 113.73 245.328 116.315V137.5H236.1V117.961C236.115 115.925 235.595 114.336 234.541 113.195C233.487 112.04 232.035 111.462 230.187 111.462C228.945 111.462 227.847 111.73 226.894 112.264C225.955 112.798 225.219 113.578 224.685 114.603C224.165 115.614 223.898 116.835 223.883 118.264ZM270.299 104.227V111.159H250.262V104.227H270.299ZM254.811 96.2557H264.039V127.276C264.039 128.128 264.169 128.792 264.429 129.268C264.689 129.731 265.05 130.056 265.512 130.243C265.989 130.431 266.537 130.525 267.158 130.525C267.592 130.525 268.025 130.489 268.458 130.417C268.891 130.33 269.223 130.265 269.454 130.222L270.906 137.088C270.444 137.233 269.794 137.399 268.956 137.587C268.119 137.789 267.101 137.912 265.902 137.955C263.678 138.042 261.728 137.746 260.053 137.067C258.392 136.388 257.1 135.334 256.176 133.904C255.251 132.474 254.797 130.669 254.811 128.489V96.2557ZM285.798 138.128C283.676 138.128 281.784 137.76 280.123 137.023C278.462 136.272 277.148 135.168 276.18 133.709C275.227 132.236 274.751 130.402 274.751 128.207C274.751 126.359 275.09 124.806 275.769 123.55C276.448 122.293 277.372 121.282 278.542 120.517C279.711 119.752 281.04 119.174 282.527 118.784C284.029 118.394 285.603 118.12 287.25 117.961C289.185 117.759 290.745 117.571 291.929 117.398C293.113 117.21 293.972 116.936 294.506 116.575C295.041 116.214 295.308 115.679 295.308 114.972V114.842C295.308 113.47 294.875 112.408 294.008 111.657C293.156 110.906 291.943 110.531 290.369 110.531C288.708 110.531 287.387 110.899 286.405 111.636C285.423 112.358 284.773 113.268 284.455 114.365L275.921 113.672C276.354 111.65 277.206 109.903 278.477 108.43C279.747 106.942 281.387 105.801 283.394 105.007C285.416 104.198 287.755 103.794 290.412 103.794C292.261 103.794 294.03 104.011 295.72 104.444C297.424 104.877 298.933 105.549 300.247 106.458C301.575 107.368 302.622 108.538 303.388 109.968C304.153 111.383 304.536 113.08 304.536 115.058V137.5H295.785V132.886H295.525C294.99 133.926 294.275 134.843 293.38 135.637C292.485 136.417 291.409 137.031 290.152 137.478C288.896 137.912 287.445 138.128 285.798 138.128ZM288.441 131.76C289.799 131.76 290.997 131.492 292.037 130.958C293.077 130.409 293.893 129.673 294.485 128.749C295.077 127.824 295.373 126.777 295.373 125.608V122.077C295.084 122.264 294.687 122.438 294.182 122.597C293.691 122.741 293.135 122.878 292.514 123.008C291.893 123.124 291.272 123.232 290.651 123.333C290.03 123.42 289.466 123.499 288.961 123.571C287.878 123.73 286.932 123.983 286.123 124.33C285.315 124.676 284.686 125.145 284.239 125.738C283.791 126.315 283.567 127.037 283.567 127.904C283.567 129.16 284.022 130.121 284.932 130.785C285.856 131.435 287.026 131.76 288.441 131.76ZM326.729 138.15C323.32 138.15 320.389 137.428 317.934 135.984C315.493 134.525 313.616 132.503 312.302 129.918C311.002 127.333 310.352 124.358 310.352 120.994C310.352 117.585 311.009 114.596 312.323 112.026C313.652 109.441 315.537 107.426 317.977 105.982C320.418 104.523 323.32 103.794 326.685 103.794C329.588 103.794 332.13 104.321 334.31 105.375C336.491 106.43 338.217 107.91 339.487 109.816C340.758 111.722 341.459 113.961 341.589 116.531H332.881C332.635 114.871 331.985 113.535 330.931 112.524C329.891 111.498 328.527 110.986 326.837 110.986C325.407 110.986 324.158 111.376 323.089 112.156C322.035 112.921 321.212 114.04 320.62 115.513C320.028 116.986 319.732 118.77 319.732 120.864C319.732 122.987 320.021 124.792 320.598 126.279C321.19 127.767 322.021 128.9 323.089 129.68C324.158 130.46 325.407 130.85 326.837 130.85C327.891 130.85 328.837 130.633 329.675 130.2C330.527 129.767 331.227 129.138 331.776 128.315C332.339 127.478 332.707 126.474 332.881 125.304H341.589C341.444 127.846 340.751 130.084 339.509 132.02C338.282 133.94 336.585 135.442 334.419 136.525C332.252 137.608 329.689 138.15 326.729 138.15ZM365.195 104.227V111.159H345.157V104.227H365.195ZM349.706 96.2557H358.934V127.276C358.934 128.128 359.064 128.792 359.324 129.268C359.584 129.731 359.945 130.056 360.407 130.243C360.884 130.431 361.433 130.525 362.054 130.525C362.487 130.525 362.92 130.489 363.354 130.417C363.787 130.33 364.119 130.265 364.35 130.222L365.801 137.088C365.339 137.233 364.689 137.399 363.852 137.587C363.014 137.789 361.996 137.912 360.797 137.955C358.573 138.042 356.624 137.746 354.949 137.067C353.288 136.388 351.995 135.334 351.071 133.904C350.147 132.474 349.692 130.669 349.706 128.489V96.2557Z" fill="white"/>
<path d="M3.30398 167.973V165.864H18.0312V167.973H11.8565V185.5H9.47869V167.973H3.30398ZM23.7242 185.845C22.7909 185.845 21.944 185.669 21.1833 185.318C20.4227 184.96 19.8186 184.445 19.3712 183.774C18.9237 183.097 18.7 182.278 18.7 181.32C18.7 180.476 18.8662 179.792 19.1986 179.268C19.531 178.737 19.9752 178.322 20.5313 178.021C21.0874 177.721 21.7011 177.497 22.3722 177.35C23.0498 177.197 23.7306 177.075 24.4145 176.986C25.3094 176.871 26.0349 176.784 26.591 176.727C27.1535 176.663 27.5626 176.558 27.8183 176.411C28.0803 176.263 28.2114 176.008 28.2114 175.643V175.567C28.2114 174.621 27.9525 173.886 27.4347 173.362C26.9234 172.837 26.1468 172.575 25.1048 172.575C24.0246 172.575 23.1776 172.812 22.564 173.285C21.9504 173.758 21.5189 174.263 21.2696 174.8L19.1219 174.033C19.5054 173.138 20.0168 172.441 20.656 171.942C21.3016 171.437 22.0047 171.086 22.7654 170.888C23.5324 170.683 24.2867 170.581 25.0281 170.581C25.5012 170.581 26.0445 170.638 26.6581 170.754C27.2781 170.862 27.8758 171.089 28.4511 171.434C29.0328 171.779 29.5154 172.3 29.8989 172.997C30.2824 173.694 30.4742 174.627 30.4742 175.797V185.5H28.2114V183.506H28.0963C27.9429 183.825 27.6872 184.167 27.3293 184.532C26.9713 184.896 26.4951 185.206 25.9007 185.462C25.3062 185.717 24.5807 185.845 23.7242 185.845ZM24.0693 183.812C24.9642 183.812 25.7185 183.637 26.3321 183.285C26.9521 182.934 27.4188 182.48 27.732 181.924C28.0516 181.368 28.2114 180.783 28.2114 180.169V178.098C28.1155 178.213 27.9046 178.319 27.5786 178.414C27.259 178.504 26.8882 178.584 26.4664 178.654C26.0509 178.718 25.645 178.776 25.2487 178.827C24.8588 178.871 24.5423 178.91 24.2995 178.942C23.7114 179.018 23.1617 179.143 22.6503 179.316C22.1453 179.482 21.7362 179.734 21.423 180.073C21.1162 180.406 20.9628 180.859 20.9628 181.435C20.9628 182.221 21.2536 182.815 21.8353 183.218C22.4234 183.614 23.1681 183.812 24.0693 183.812ZM45.036 174.071L43.0034 174.646C42.8755 174.308 42.687 173.978 42.4377 173.659C42.1948 173.333 41.8624 173.064 41.4405 172.853C41.0186 172.642 40.4785 172.537 39.8201 172.537C38.9189 172.537 38.1678 172.745 37.5669 173.16C36.9725 173.569 36.6752 174.09 36.6752 174.723C36.6752 175.286 36.8798 175.73 37.2889 176.056C37.698 176.382 38.3372 176.653 39.2065 176.871L41.3926 177.408C42.7093 177.727 43.6905 178.216 44.3361 178.875C44.9817 179.527 45.3045 180.367 45.3045 181.396C45.3045 182.24 45.0616 182.994 44.5758 183.659C44.0964 184.324 43.4252 184.848 42.5623 185.232C41.6994 185.615 40.6958 185.807 39.5517 185.807C38.0495 185.807 36.8063 185.481 35.8219 184.829C34.8375 184.177 34.2143 183.224 33.9522 181.972L36.1 181.435C36.3045 182.227 36.6912 182.822 37.2601 183.218C37.8354 183.614 38.5865 183.812 39.5133 183.812C40.568 183.812 41.4054 183.589 42.0254 183.141C42.6518 182.687 42.965 182.144 42.965 181.511C42.965 181 42.786 180.572 42.4281 180.227C42.0701 179.875 41.5204 179.613 40.7789 179.44L38.3244 178.865C36.9757 178.545 35.9849 178.05 35.3521 177.379C34.7257 176.701 34.4125 175.854 34.4125 174.838C34.4125 174.007 34.6458 173.272 35.1124 172.633C35.5854 171.994 36.2278 171.492 37.0396 171.127C37.8578 170.763 38.7846 170.581 39.8201 170.581C41.2775 170.581 42.4217 170.901 43.2527 171.54C44.09 172.179 44.6845 173.023 45.036 174.071ZM50.82 180.131L50.7817 177.331H51.2419L57.6851 170.773H60.4848L53.6198 177.714H53.428L50.82 180.131ZM48.7107 185.5V165.864H50.9735V185.5H48.7107ZM58.0686 185.5L52.3158 178.213L53.9266 176.641L60.945 185.5H58.0686ZM73.829 174.071L71.7963 174.646C71.6685 174.308 71.4799 173.978 71.2306 173.659C70.9877 173.333 70.6554 173.064 70.2335 172.853C69.8116 172.642 69.2715 172.537 68.6131 172.537C67.7118 172.537 66.9608 172.745 66.3599 173.16C65.7654 173.569 65.4682 174.09 65.4682 174.723C65.4682 175.286 65.6728 175.73 66.0819 176.056C66.4909 176.382 67.1301 176.653 67.9995 176.871L70.1855 177.408C71.5023 177.727 72.4835 178.216 73.1291 178.875C73.7747 179.527 74.0975 180.367 74.0975 181.396C74.0975 182.24 73.8546 182.994 73.3688 183.659C72.8894 184.324 72.2182 184.848 71.3553 185.232C70.4924 185.615 69.4888 185.807 68.3446 185.807C66.8425 185.807 65.5993 185.481 64.6149 184.829C63.6305 184.177 63.0073 183.224 62.7452 181.972L64.8929 181.435C65.0975 182.227 65.4842 182.822 66.0531 183.218C66.6284 183.614 67.3794 183.812 68.3063 183.812C69.361 183.812 70.1983 183.589 70.8184 183.141C71.4448 182.687 71.758 182.144 71.758 181.511C71.758 181 71.579 180.572 71.2211 180.227C70.8631 179.875 70.3134 179.613 69.5719 179.44L67.1174 178.865C65.7686 178.545 64.7779 178.05 64.1451 177.379C63.5186 176.701 63.2054 175.854 63.2054 174.838C63.2054 174.007 63.4387 173.272 63.9054 172.633C64.3784 171.994 65.0208 171.492 65.8326 171.127C66.6507 170.763 67.5776 170.581 68.6131 170.581C70.0705 170.581 71.2147 170.901 72.0456 171.54C72.883 172.179 73.4775 173.023 73.829 174.071ZM89.4312 185.845C88.498 185.845 87.651 185.669 86.8904 185.318C86.1297 184.96 85.5257 184.445 85.0782 183.774C84.6308 183.097 84.407 182.278 84.407 181.32C84.407 180.476 84.5732 179.792 84.9056 179.268C85.238 178.737 85.6823 178.322 86.2384 178.021C86.7945 177.721 87.4081 177.497 88.0793 177.35C88.7568 177.197 89.4376 177.075 90.1215 176.986C91.0164 176.871 91.7419 176.784 92.298 176.727C92.8605 176.663 93.2696 176.558 93.5253 176.411C93.7874 176.263 93.9184 176.008 93.9184 175.643V175.567C93.9184 174.621 93.6595 173.886 93.1418 173.362C92.6304 172.837 91.8538 172.575 90.8119 172.575C89.7316 172.575 88.8847 172.812 88.271 173.285C87.6574 173.758 87.2259 174.263 86.9767 174.8L84.8289 174.033C85.2124 173.138 85.7238 172.441 86.363 171.942C87.0086 171.437 87.7117 171.086 88.4724 170.888C89.2394 170.683 89.9937 170.581 90.7352 170.581C91.2082 170.581 91.7515 170.638 92.3651 170.754C92.9852 170.862 93.5828 171.089 94.1581 171.434C94.7398 171.779 95.2224 172.3 95.6059 172.997C95.9894 173.694 96.1812 174.627 96.1812 175.797V185.5H93.9184V183.506H93.8034C93.6499 183.825 93.3943 184.167 93.0363 184.532C92.6784 184.896 92.2021 185.206 91.6077 185.462C91.0132 185.717 90.2877 185.845 89.4312 185.845ZM89.7764 183.812C90.6713 183.812 91.4255 183.637 92.0392 183.285C92.6592 182.934 93.1258 182.48 93.439 181.924C93.7586 181.368 93.9184 180.783 93.9184 180.169V178.098C93.8225 178.213 93.6116 178.319 93.2856 178.414C92.966 178.504 92.5953 178.584 92.1734 178.654C91.7579 178.718 91.352 178.776 90.9557 178.827C90.5658 178.871 90.2494 178.91 90.0065 178.942C89.4184 179.018 88.8687 179.143 88.3573 179.316C87.8524 179.482 87.4433 179.734 87.1301 180.073C86.8232 180.406 86.6698 180.859 86.6698 181.435C86.6698 182.221 86.9607 182.815 87.5423 183.218C88.1304 183.614 88.8751 183.812 89.7764 183.812ZM100.311 185.5V170.773H102.497V172.997H102.651C102.919 172.268 103.405 171.677 104.108 171.223C104.811 170.77 105.604 170.543 106.486 170.543C106.652 170.543 106.86 170.546 107.109 170.552C107.358 170.559 107.547 170.568 107.675 170.581V172.882C107.598 172.863 107.422 172.834 107.148 172.796C106.879 172.751 106.595 172.729 106.294 172.729C105.578 172.729 104.939 172.879 104.377 173.179C103.82 173.473 103.379 173.882 103.053 174.407C102.734 174.924 102.574 175.516 102.574 176.18V185.5H100.311ZM116.084 185.807C114.665 185.807 113.441 185.494 112.411 184.867C111.389 184.234 110.599 183.352 110.043 182.221C109.493 181.083 109.219 179.76 109.219 178.251C109.219 176.743 109.493 175.413 110.043 174.263C110.599 173.106 111.373 172.205 112.363 171.559C113.361 170.907 114.524 170.581 115.854 170.581C116.621 170.581 117.378 170.709 118.126 170.964C118.874 171.22 119.555 171.636 120.168 172.211C120.782 172.78 121.271 173.534 121.635 174.474C121.999 175.413 122.182 176.57 122.182 177.945V178.903H110.829V176.947H119.881C119.881 176.116 119.714 175.375 119.382 174.723C119.056 174.071 118.589 173.556 117.982 173.179C117.381 172.802 116.672 172.614 115.854 172.614C114.952 172.614 114.172 172.837 113.514 173.285C112.862 173.726 112.36 174.301 112.009 175.011C111.657 175.72 111.481 176.481 111.481 177.293V178.597C111.481 179.709 111.673 180.652 112.057 181.425C112.447 182.192 112.987 182.777 113.677 183.18C114.367 183.576 115.17 183.774 116.084 183.774C116.678 183.774 117.215 183.691 117.694 183.525C118.18 183.352 118.599 183.097 118.95 182.758C119.302 182.413 119.574 181.984 119.765 181.473L121.952 182.087C121.721 182.828 121.335 183.48 120.791 184.043C120.248 184.599 119.577 185.033 118.778 185.347C117.979 185.653 117.081 185.807 116.084 185.807ZM133.524 185.5V165.864H135.787V173.112H135.979C136.145 172.857 136.375 172.531 136.669 172.134C136.97 171.732 137.398 171.374 137.954 171.06C138.517 170.741 139.277 170.581 140.236 170.581C141.476 170.581 142.569 170.891 143.515 171.511C144.461 172.131 145.199 173.01 145.73 174.148C146.26 175.286 146.526 176.628 146.526 178.175C146.526 179.734 146.26 181.086 145.73 182.23C145.199 183.368 144.464 184.25 143.525 184.877C142.585 185.497 141.502 185.807 140.274 185.807C139.328 185.807 138.571 185.65 138.002 185.337C137.433 185.017 136.995 184.656 136.688 184.254C136.382 183.844 136.145 183.506 135.979 183.237H135.71V185.5H133.524ZM135.749 178.136C135.749 179.249 135.912 180.23 136.238 181.08C136.564 181.924 137.04 182.585 137.666 183.065C138.293 183.538 139.06 183.774 139.968 183.774C140.914 183.774 141.703 183.525 142.336 183.026C142.975 182.521 143.454 181.844 143.774 180.994C144.1 180.137 144.263 179.185 144.263 178.136C144.263 177.101 144.103 176.168 143.784 175.337C143.47 174.499 142.994 173.838 142.355 173.352C141.722 172.86 140.926 172.614 139.968 172.614C139.047 172.614 138.274 172.847 137.647 173.314C137.021 173.774 136.548 174.419 136.228 175.25C135.909 176.075 135.749 177.037 135.749 178.136ZM156.162 185.807C154.743 185.807 153.519 185.494 152.49 184.867C151.467 184.234 150.677 183.352 150.121 182.221C149.572 181.083 149.297 179.76 149.297 178.251C149.297 176.743 149.572 175.413 150.121 174.263C150.677 173.106 151.451 172.205 152.442 171.559C153.439 170.907 154.602 170.581 155.932 170.581C156.699 170.581 157.456 170.709 158.204 170.964C158.952 171.22 159.633 171.636 160.246 172.211C160.86 172.78 161.349 173.534 161.713 174.474C162.078 175.413 162.26 176.57 162.26 177.945V178.903H150.907V176.947H159.959C159.959 176.116 159.792 175.375 159.46 174.723C159.134 174.071 158.667 173.556 158.06 173.179C157.459 172.802 156.75 172.614 155.932 172.614C155.03 172.614 154.251 172.837 153.592 173.285C152.94 173.726 152.438 174.301 152.087 175.011C151.735 175.72 151.559 176.481 151.559 177.293V178.597C151.559 179.709 151.751 180.652 152.135 181.425C152.525 182.192 153.065 182.777 153.755 183.18C154.445 183.576 155.248 183.774 156.162 183.774C156.756 183.774 157.293 183.691 157.773 183.525C158.258 183.352 158.677 183.097 159.029 182.758C159.38 182.413 159.652 181.984 159.844 181.473L162.03 182.087C161.8 182.828 161.413 183.48 160.869 184.043C160.326 184.599 159.655 185.033 158.856 185.347C158.057 185.653 157.159 185.807 156.162 185.807ZM172.107 170.773V172.69H164.475V170.773H172.107ZM166.699 167.244H168.962V181.281C168.962 181.92 169.055 182.4 169.24 182.719C169.432 183.033 169.675 183.244 169.969 183.352C170.269 183.455 170.585 183.506 170.918 183.506C171.167 183.506 171.372 183.493 171.531 183.467C171.691 183.435 171.819 183.41 171.915 183.391L172.375 185.423C172.222 185.481 172.008 185.538 171.733 185.596C171.458 185.66 171.11 185.692 170.688 185.692C170.048 185.692 169.422 185.554 168.808 185.279C168.201 185.005 167.696 184.586 167.294 184.023C166.897 183.461 166.699 182.751 166.699 181.895V167.244ZM181.915 170.773V172.69H174.283V170.773H181.915ZM176.508 167.244H178.77V181.281C178.77 181.92 178.863 182.4 179.048 182.719C179.24 183.033 179.483 183.244 179.777 183.352C180.078 183.455 180.394 183.506 180.726 183.506C180.976 183.506 181.18 183.493 181.34 183.467C181.5 183.435 181.628 183.41 181.724 183.391L182.184 185.423C182.03 185.481 181.816 185.538 181.541 185.596C181.267 185.66 180.918 185.692 180.496 185.692C179.857 185.692 179.231 185.554 178.617 185.279C178.01 185.005 177.505 184.586 177.102 184.023C176.706 183.461 176.508 182.751 176.508 181.895V167.244ZM191.336 185.807C189.917 185.807 188.692 185.494 187.663 184.867C186.641 184.234 185.851 183.352 185.295 182.221C184.745 181.083 184.471 179.76 184.471 178.251C184.471 176.743 184.745 175.413 185.295 174.263C185.851 173.106 186.625 172.205 187.615 171.559C188.613 170.907 189.776 170.581 191.105 170.581C191.873 170.581 192.63 170.709 193.378 170.964C194.126 171.22 194.806 171.636 195.42 172.211C196.034 172.78 196.523 173.534 196.887 174.474C197.251 175.413 197.434 176.57 197.434 177.945V178.903H186.081V176.947H195.132C195.132 176.116 194.966 175.375 194.634 174.723C194.308 174.071 193.841 173.556 193.234 173.179C192.633 172.802 191.924 172.614 191.105 172.614C190.204 172.614 189.424 172.837 188.766 173.285C188.114 173.726 187.612 174.301 187.261 175.011C186.909 175.72 186.733 176.481 186.733 177.293V178.597C186.733 179.709 186.925 180.652 187.309 181.425C187.699 182.192 188.239 182.777 188.929 183.18C189.619 183.576 190.422 183.774 191.336 183.774C191.93 183.774 192.467 183.691 192.946 183.525C193.432 183.352 193.851 183.097 194.202 182.758C194.554 182.413 194.826 181.984 195.017 181.473L197.203 182.087C196.973 182.828 196.587 183.48 196.043 184.043C195.5 184.599 194.829 185.033 194.03 185.347C193.231 185.653 192.333 185.807 191.336 185.807ZM200.876 185.5V170.773H203.062V172.997H203.215C203.484 172.268 203.969 171.677 204.673 171.223C205.376 170.77 206.168 170.543 207.05 170.543C207.217 170.543 207.424 170.546 207.674 170.552C207.923 170.559 208.112 170.568 208.239 170.581V172.882C208.163 172.863 207.987 172.834 207.712 172.796C207.444 172.751 207.159 172.729 206.859 172.729C206.143 172.729 205.504 172.879 204.941 173.179C204.385 173.473 203.944 173.882 203.618 174.407C203.298 174.924 203.138 175.516 203.138 176.18V185.5H200.876ZM221.852 185.5L217.365 170.773H219.743L222.926 182.048H223.079L226.224 170.773H228.64L231.747 182.01H231.9L235.084 170.773H237.461L232.974 185.5H230.75L227.528 174.186H227.298L224.076 185.5H221.852ZM240.453 185.5V170.773H242.716V185.5H240.453ZM241.603 168.318C241.162 168.318 240.782 168.168 240.462 167.868C240.149 167.567 239.993 167.206 239.993 166.784C239.993 166.362 240.149 166.001 240.462 165.701C240.782 165.4 241.162 165.25 241.603 165.25C242.044 165.25 242.422 165.4 242.735 165.701C243.054 166.001 243.214 166.362 243.214 166.784C243.214 167.206 243.054 167.567 242.735 167.868C242.422 168.168 242.044 168.318 241.603 168.318ZM253.265 170.773V172.69H245.633V170.773H253.265ZM247.857 167.244H250.12V181.281C250.12 181.92 250.213 182.4 250.398 182.719C250.59 183.033 250.833 183.244 251.127 183.352C251.427 183.455 251.744 183.506 252.076 183.506C252.325 183.506 252.53 183.493 252.69 183.467C252.849 183.435 252.977 183.41 253.073 183.391L253.533 185.423C253.38 185.481 253.166 185.538 252.891 185.596C252.616 185.66 252.268 185.692 251.846 185.692C251.207 185.692 250.58 185.554 249.967 185.279C249.359 185.005 248.854 184.586 248.452 184.023C248.055 183.461 247.857 182.751 247.857 181.895V167.244ZM259.248 176.641V185.5H256.985V165.864H259.248V173.074H259.44C259.785 172.313 260.303 171.709 260.993 171.262C261.69 170.808 262.616 170.581 263.773 170.581C264.777 170.581 265.656 170.782 266.41 171.185C267.164 171.581 267.749 172.192 268.165 173.016C268.587 173.835 268.798 174.876 268.798 176.142V185.5H266.535V176.295C266.535 175.126 266.231 174.221 265.624 173.582C265.023 172.936 264.189 172.614 263.121 172.614C262.38 172.614 261.715 172.77 261.127 173.083C260.545 173.397 260.085 173.854 259.746 174.455C259.414 175.055 259.248 175.784 259.248 176.641ZM284.865 185.845C283.932 185.845 283.085 185.669 282.324 185.318C281.563 184.96 280.959 184.445 280.512 183.774C280.064 183.097 279.841 182.278 279.841 181.32C279.841 180.476 280.007 179.792 280.339 179.268C280.672 178.737 281.116 178.322 281.672 178.021C282.228 177.721 282.842 177.497 283.513 177.35C284.19 177.197 284.871 177.075 285.555 176.986C286.45 176.871 287.176 176.784 287.732 176.727C288.294 176.663 288.703 176.558 288.959 176.411C289.221 176.263 289.352 176.008 289.352 175.643V175.567C289.352 174.621 289.093 173.886 288.575 173.362C288.064 172.837 287.287 172.575 286.245 172.575C285.165 172.575 284.318 172.812 283.705 173.285C283.091 173.758 282.66 174.263 282.41 174.8L280.263 174.033C280.646 173.138 281.157 172.441 281.797 171.942C282.442 171.437 283.145 171.086 283.906 170.888C284.673 170.683 285.427 170.581 286.169 170.581C286.642 170.581 287.185 170.638 287.799 170.754C288.419 170.862 289.016 171.089 289.592 171.434C290.173 171.779 290.656 172.3 291.04 172.997C291.423 173.694 291.615 174.627 291.615 175.797V185.5H289.352V183.506H289.237C289.084 183.825 288.828 184.167 288.47 184.532C288.112 184.896 287.636 185.206 287.041 185.462C286.447 185.717 285.721 185.845 284.865 185.845ZM285.21 183.812C286.105 183.812 286.859 183.637 287.473 183.285C288.093 182.934 288.559 182.48 288.873 181.924C289.192 181.368 289.352 180.783 289.352 180.169V178.098C289.256 178.213 289.045 178.319 288.719 178.414C288.4 178.504 288.029 178.584 287.607 178.654C287.191 178.718 286.786 178.776 286.389 178.827C285.999 178.871 285.683 178.91 285.44 178.942C284.852 179.018 284.302 179.143 283.791 179.316C283.286 179.482 282.877 179.734 282.564 180.073C282.257 180.406 282.103 180.859 282.103 181.435C282.103 182.221 282.394 182.815 282.976 183.218C283.564 183.614 284.309 183.812 285.21 183.812ZM309.743 170.773V172.69H302.111V170.773H309.743ZM304.336 167.244H306.599V181.281C306.599 181.92 306.691 182.4 306.877 182.719C307.068 183.033 307.311 183.244 307.605 183.352C307.906 183.455 308.222 183.506 308.555 183.506C308.804 183.506 309.008 183.493 309.168 183.467C309.328 183.435 309.456 183.41 309.552 183.391L310.012 185.423C309.858 185.481 309.644 185.538 309.369 185.596C309.095 185.66 308.746 185.692 308.324 185.692C307.685 185.692 307.059 185.554 306.445 185.279C305.838 185.005 305.333 184.586 304.93 184.023C304.534 183.461 304.336 182.751 304.336 181.895V167.244ZM319.164 185.807C317.745 185.807 316.521 185.494 315.491 184.867C314.469 184.234 313.679 183.352 313.123 182.221C312.574 181.083 312.299 179.76 312.299 178.251C312.299 176.743 312.574 175.413 313.123 174.263C313.679 173.106 314.453 172.205 315.444 171.559C316.441 170.907 317.604 170.581 318.934 170.581C319.701 170.581 320.458 170.709 321.206 170.964C321.954 171.22 322.635 171.636 323.248 172.211C323.862 172.78 324.351 173.534 324.715 174.474C325.08 175.413 325.262 176.57 325.262 177.945V178.903H313.909V176.947H322.961C322.961 176.116 322.794 175.375 322.462 174.723C322.136 174.071 321.669 173.556 321.062 173.179C320.461 172.802 319.752 172.614 318.934 172.614C318.032 172.614 317.252 172.837 316.594 173.285C315.942 173.726 315.44 174.301 315.089 175.011C314.737 175.72 314.561 176.481 314.561 177.293V178.597C314.561 179.709 314.753 180.652 315.137 181.425C315.527 182.192 316.067 182.777 316.757 183.18C317.447 183.576 318.25 183.774 319.164 183.774C319.758 183.774 320.295 183.691 320.775 183.525C321.26 183.352 321.679 183.097 322.031 182.758C322.382 182.413 322.654 181.984 322.846 181.473L325.032 182.087C324.801 182.828 324.415 183.48 323.871 184.043C323.328 184.599 322.657 185.033 321.858 185.347C321.059 185.653 320.161 185.807 319.164 185.807ZM333.038 185.845C332.104 185.845 331.257 185.669 330.497 185.318C329.736 184.96 329.132 184.445 328.685 183.774C328.237 183.097 328.013 182.278 328.013 181.32C328.013 180.476 328.18 179.792 328.512 179.268C328.844 178.737 329.289 178.322 329.845 178.021C330.401 177.721 331.015 177.497 331.686 177.35C332.363 177.197 333.044 177.075 333.728 176.986C334.623 176.871 335.348 176.784 335.904 176.727C336.467 176.663 336.876 176.558 337.132 176.411C337.394 176.263 337.525 176.008 337.525 175.643V175.567C337.525 174.621 337.266 173.886 336.748 173.362C336.237 172.837 335.46 172.575 334.418 172.575C333.338 172.575 332.491 172.812 331.877 173.285C331.264 173.758 330.832 174.263 330.583 174.8L328.435 174.033C328.819 173.138 329.33 172.441 329.969 171.942C330.615 171.437 331.318 171.086 332.079 170.888C332.846 170.683 333.6 170.581 334.342 170.581C334.815 170.581 335.358 170.638 335.972 170.754C336.592 170.862 337.189 171.089 337.765 171.434C338.346 171.779 338.829 172.3 339.212 172.997C339.596 173.694 339.788 174.627 339.788 175.797V185.5H337.525V183.506H337.41C337.256 183.825 337.001 184.167 336.643 184.532C336.285 184.896 335.809 185.206 335.214 185.462C334.62 185.717 333.894 185.845 333.038 185.845ZM333.383 183.812C334.278 183.812 335.032 183.637 335.646 183.285C336.266 182.934 336.732 182.48 337.045 181.924C337.365 181.368 337.525 180.783 337.525 180.169V178.098C337.429 178.213 337.218 178.319 336.892 178.414C336.572 178.504 336.202 178.584 335.78 178.654C335.364 178.718 334.958 178.776 334.562 178.827C334.172 178.871 333.856 178.91 333.613 178.942C333.025 179.018 332.475 179.143 331.964 179.316C331.459 179.482 331.05 179.734 330.737 180.073C330.43 180.406 330.276 180.859 330.276 181.435C330.276 182.221 330.567 182.815 331.149 183.218C331.737 183.614 332.482 183.812 333.383 183.812ZM343.918 185.5V170.773H346.104V173.074H346.296C346.602 172.288 347.098 171.677 347.782 171.243C348.466 170.801 349.287 170.581 350.246 170.581C351.217 170.581 352.026 170.801 352.672 171.243C353.324 171.677 353.832 172.288 354.196 173.074H354.35C354.727 172.313 355.292 171.709 356.047 171.262C356.801 170.808 357.705 170.581 358.76 170.581C360.077 170.581 361.154 170.993 361.991 171.818C362.829 172.636 363.247 173.911 363.247 175.643V185.5H360.984V175.643C360.984 174.557 360.687 173.78 360.093 173.314C359.498 172.847 358.798 172.614 357.993 172.614C356.957 172.614 356.155 172.927 355.586 173.553C355.017 174.173 354.733 174.96 354.733 175.912V185.5H352.432V175.413C352.432 174.576 352.16 173.902 351.617 173.39C351.074 172.873 350.374 172.614 349.517 172.614C348.929 172.614 348.379 172.77 347.868 173.083C347.363 173.397 346.954 173.831 346.641 174.387C346.334 174.937 346.18 175.573 346.18 176.295V185.5H343.918ZM370.376 165.864L370.184 179.977H367.96L367.768 165.864H370.376ZM369.072 185.653C368.599 185.653 368.193 185.484 367.854 185.145C367.516 184.806 367.346 184.401 367.346 183.928C367.346 183.455 367.516 183.049 367.854 182.71C368.193 182.371 368.599 182.202 369.072 182.202C369.545 182.202 369.951 182.371 370.29 182.71C370.628 183.049 370.798 183.455 370.798 183.928C370.798 184.241 370.718 184.528 370.558 184.79C370.405 185.053 370.197 185.263 369.935 185.423C369.679 185.577 369.392 185.653 369.072 185.653Z" fill="white"/>
<path d="M92 207.5H2" stroke="#29ABE2" stroke-width="3" stroke-linecap="round"/>
<path d="M40.7397 0H28.4242V13.8957H40.7397V0Z" fill="white"/>
<path d="M28.4243 25.197H40.7397V44.7947C40.796 49.5105 39.4275 54.1362 36.8083 58.0839C34.222 61.9194 29.2295 66.4829 19.9929 66.4829C9.93211 66.4829 4.06806 61.8167 0.903931 59.2597L8.67215 49.8621C11.7605 52.3352 14.7351 54.3696 20.0403 54.3696C24.057 54.3696 25.658 52.7645 26.5959 51.3646C27.8709 49.4203 28.5304 47.1465 28.4906 44.8321L28.4243 25.197Z" fill="white"/>
<path d="M22.1434 16.4248H9.82792V28.5567H22.1434V16.4248Z" fill="#29ABE2"/>
<path d="M47.1911 60.7904C47.1911 63.3754 45.8554 64.7659 43.9891 64.7659C42.1228 64.7659 40.9008 63.1141 40.9008 60.9211C40.9008 58.728 42.1607 56.9922 44.0933 56.9922C46.0259 56.9922 47.1911 58.7 47.1911 60.7904ZM42.3312 60.8931C42.3312 62.4516 42.966 63.5994 44.0554 63.5994C45.1449 63.5994 45.7606 62.3862 45.7606 60.7997C45.7606 59.4092 45.1922 58.1027 44.0554 58.1027C42.9186 58.1027 42.3312 59.3626 42.3312 60.8931Z" fill="white"/>
<path d="M49.6353 57.104V64.6445H48.2711V57.104H49.6353Z" fill="white"/>
<path d="M51.1131 64.6445V57.104H52.6289L54.2583 60.2116C54.6778 61.0242 55.051 61.8592 55.3762 62.7127C55.2909 61.7795 55.253 60.7063 55.253 59.5117V57.104H56.5035V64.6445H55.092L53.4436 61.4715C53.0072 60.638 52.6182 59.7812 52.2784 58.9051C52.2784 59.8384 52.3447 60.8929 52.3447 62.1901V64.6351L51.1131 64.6445Z" fill="white"/>
</svg>
