<svg width="284" height="106" viewBox="0 0 284 106" fill="none" xmlns="http://www.w3.org/2000/svg">
<path d="M10.8626 45H3.11825L14.9183 10.8182H24.2315L36.0149 45H28.2706L19.7085 18.6293H19.4414L10.8626 45ZM10.3786 31.5643H28.6712V37.2056H10.3786V31.5643ZM48.2489 45.4173C46.3017 45.4173 44.5381 44.9165 42.9581 43.9151C41.3892 42.9026 40.143 41.4171 39.2195 39.4588C38.3071 37.4893 37.8509 35.0748 37.8509 32.2152C37.8509 29.2777 38.3237 26.8353 39.2695 24.8881C40.2153 22.9298 41.4727 21.4666 43.0415 20.4986C44.6216 19.5194 46.3518 19.0298 48.2322 19.0298C49.6676 19.0298 50.8638 19.2746 51.8207 19.7642C52.7887 20.2427 53.5676 20.8435 54.1573 21.5668C54.7582 22.2789 55.2144 22.9799 55.5259 23.6697H55.7429V10.8182H62.8363V45H55.8264V40.8942H55.5259C55.1921 41.6063 54.7192 42.3129 54.1072 43.0138C53.5064 43.7037 52.7219 44.2768 51.7539 44.733C50.797 45.1892 49.6287 45.4173 48.2489 45.4173ZM50.5021 39.7592C51.6482 39.7592 52.6162 39.4477 53.4062 38.8246C54.2074 38.1903 54.8194 37.3058 55.2422 36.1708C55.6761 35.0359 55.8931 33.7062 55.8931 32.1818C55.8931 30.6574 55.6817 29.3333 55.2589 28.2095C54.8361 27.0857 54.2241 26.2178 53.4229 25.6058C52.6218 24.9938 51.6482 24.6879 50.5021 24.6879C49.3338 24.6879 48.3491 25.005 47.5479 25.6392C46.7468 26.2734 46.1404 27.1525 45.7287 28.2763C45.317 29.4001 45.1112 30.7019 45.1112 32.1818C45.1112 33.6728 45.317 34.9914 45.7287 36.1374C46.1515 37.2724 46.7579 38.1625 47.5479 38.8079C48.3491 39.4421 49.3338 39.7592 50.5021 39.7592ZM78.1288 45.4173C76.1816 45.4173 74.418 44.9165 72.838 43.9151C71.2691 42.9026 70.0229 41.4171 69.0993 39.4588C68.1869 37.4893 67.7307 35.0748 67.7307 32.2152C67.7307 29.2777 68.2036 26.8353 69.1494 24.8881C70.0952 22.9298 71.3525 21.4666 72.9214 20.4986C74.5015 19.5194 76.2317 19.0298 78.1121 19.0298C79.5475 19.0298 80.7436 19.2746 81.7006 19.7642C82.6686 20.2427 83.4475 20.8435 84.0372 21.5668C84.6381 22.2789 85.0943 22.9799 85.4058 23.6697H85.6228V10.8182H92.7162V45H85.7062V40.8942H85.4058C85.072 41.6063 84.5991 42.3129 83.9871 43.0138C83.3863 43.7037 82.6018 44.2768 81.6338 44.733C80.6769 45.1892 79.5086 45.4173 78.1288 45.4173ZM80.382 39.7592C81.5281 39.7592 82.4961 39.4477 83.2861 38.8246C84.0873 38.1903 84.6992 37.3058 85.1221 36.1708C85.556 35.0359 85.773 33.7062 85.773 32.1818C85.773 30.6574 85.5616 29.3333 85.1388 28.2095C84.7159 27.0857 84.104 26.2178 83.3028 25.6058C82.5017 24.9938 81.5281 24.6879 80.382 24.6879C79.2137 24.6879 78.229 25.005 77.4278 25.6392C76.6267 26.2734 76.0203 27.1525 75.6086 28.2763C75.1969 29.4001 74.991 30.7019 74.991 32.1818C74.991 33.6728 75.1969 34.9914 75.6086 36.1374C76.0314 37.2724 76.6378 38.1625 77.4278 38.8079C78.229 39.4421 79.2137 39.7592 80.382 39.7592ZM121.023 45.5007C118.397 45.5007 116.138 44.9444 114.247 43.8317C112.366 42.7079 110.92 41.1501 109.907 39.1584C108.906 37.1667 108.405 34.8745 108.405 32.282C108.405 29.656 108.911 27.3527 109.924 25.3722C110.948 23.3804 112.4 21.8282 114.28 20.7156C116.161 19.5917 118.397 19.0298 120.99 19.0298C123.226 19.0298 125.184 19.436 126.865 20.2482C128.545 21.0605 129.874 22.201 130.854 23.6697C131.833 25.1385 132.372 26.8632 132.473 28.8438H125.763C125.574 27.5642 125.073 26.5349 124.261 25.756C123.46 24.966 122.408 24.571 121.106 24.571C120.005 24.571 119.042 24.8714 118.219 25.4723C117.407 26.062 116.773 26.9244 116.316 28.0593C115.86 29.1942 115.632 30.5684 115.632 32.1818C115.632 33.8175 115.855 35.2083 116.3 36.3544C116.756 37.5005 117.396 38.3739 118.219 38.9748C119.042 39.5756 120.005 39.8761 121.106 39.8761C121.919 39.8761 122.648 39.7092 123.293 39.3754C123.949 39.0415 124.489 38.5575 124.912 37.9233C125.346 37.2779 125.63 36.5046 125.763 35.6033H132.473C132.361 37.5617 131.827 39.2863 130.87 40.7773C129.925 42.2572 128.617 43.4144 126.948 44.2489C125.279 45.0835 123.304 45.5007 121.023 45.5007ZM148.608 45.5007C146.015 45.5007 143.773 44.9499 141.882 43.8484C140.001 42.7357 138.549 41.189 137.526 39.2085C136.502 37.2167 135.99 34.9079 135.99 32.282C135.99 29.6338 136.502 27.3194 137.526 25.3388C138.549 23.3471 140.001 21.8004 141.882 20.6989C143.773 19.5862 146.015 19.0298 148.608 19.0298C151.201 19.0298 153.437 19.5862 155.317 20.6989C157.209 21.8004 158.667 23.3471 159.69 25.3388C160.714 27.3194 161.226 29.6338 161.226 32.282C161.226 34.9079 160.714 37.2167 159.69 39.2085C158.667 41.189 157.209 42.7357 155.317 43.8484C153.437 44.9499 151.201 45.5007 148.608 45.5007ZM148.641 39.9929C149.821 39.9929 150.806 39.6591 151.596 38.9915C152.386 38.3127 152.981 37.3892 153.381 36.2209C153.793 35.0526 153.999 33.7229 153.999 32.2319C153.999 30.7409 153.793 29.4112 153.381 28.2429C152.981 27.0746 152.386 26.151 151.596 25.4723C150.806 24.7936 149.821 24.4542 148.641 24.4542C147.451 24.4542 146.449 24.7936 145.637 25.4723C144.836 26.151 144.23 27.0746 143.818 28.2429C143.417 29.4112 143.217 30.7409 143.217 32.2319C143.217 33.7229 143.417 35.0526 143.818 36.2209C144.23 37.3892 144.836 38.3127 145.637 38.9915C146.449 39.6591 147.451 39.9929 148.641 39.9929ZM172.959 30.179V45H165.849V19.3636H172.625V23.8867H172.926C173.493 22.3957 174.445 21.2163 175.78 20.3484C177.115 19.4693 178.734 19.0298 180.637 19.0298C182.417 19.0298 183.969 19.4193 185.293 20.1982C186.617 20.977 187.647 22.0897 188.381 23.5362C189.115 24.9716 189.483 26.6851 189.483 28.6768V45H182.373V29.9453C182.384 28.3764 181.983 27.1525 181.171 26.2734C180.359 25.3833 179.24 24.9382 177.816 24.9382C176.859 24.9382 176.013 25.1441 175.279 25.5558C174.556 25.9674 173.988 26.5683 173.577 27.3583C173.176 28.1372 172.97 29.0774 172.959 30.179ZM208.722 19.3636V24.7045H193.284V19.3636H208.722ZM196.789 13.2216H203.899V37.1222C203.899 37.7786 203.999 38.2905 204.199 38.6577C204.4 39.0137 204.678 39.2641 205.034 39.4087C205.401 39.5534 205.824 39.6257 206.302 39.6257C206.636 39.6257 206.97 39.5979 207.304 39.5423C207.638 39.4755 207.893 39.4254 208.071 39.392L209.19 44.6829C208.834 44.7942 208.333 44.9221 207.688 45.0668C207.042 45.2225 206.258 45.3171 205.334 45.3505C203.621 45.4173 202.119 45.1892 200.828 44.6662C199.548 44.1432 198.552 43.331 197.84 42.2294C197.128 41.1278 196.778 39.737 196.789 38.0568V13.2216ZM220.664 45.484C219.029 45.484 217.571 45.2003 216.291 44.6328C215.012 44.0542 213.999 43.203 213.254 42.0792C212.519 40.9442 212.152 39.5311 212.152 37.8398C212.152 36.4156 212.414 35.2195 212.937 34.2514C213.46 33.2834 214.172 32.5045 215.073 31.9148C215.974 31.325 216.998 30.88 218.144 30.5795C219.301 30.2791 220.514 30.0677 221.783 29.9453C223.274 29.7895 224.475 29.6449 225.388 29.5114C226.3 29.3667 226.962 29.1553 227.374 28.8771C227.786 28.599 227.991 28.1873 227.991 27.642V27.5419C227.991 26.4848 227.658 25.667 226.99 25.0884C226.333 24.5098 225.399 24.2205 224.186 24.2205C222.906 24.2205 221.888 24.5043 221.132 25.0717C220.375 25.6281 219.874 26.3291 219.63 27.1747L213.054 26.6406C213.387 25.0829 214.044 23.7365 215.023 22.6016C216.002 21.4555 217.265 20.5765 218.812 19.9645C220.369 19.3414 222.172 19.0298 224.219 19.0298C225.644 19.0298 227.007 19.1967 228.309 19.5305C229.621 19.8643 230.784 20.3817 231.797 21.0827C232.82 21.7837 233.627 22.685 234.217 23.7866C234.807 24.877 235.101 26.1844 235.101 27.7088V45H228.359V41.445H228.158C227.747 42.2461 227.196 42.9527 226.506 43.5646C225.816 44.1655 224.987 44.6384 224.019 44.9833C223.051 45.3171 221.933 45.484 220.664 45.484ZM222.701 40.5771C223.746 40.5771 224.67 40.3712 225.471 39.9595C226.272 39.5367 226.901 38.9692 227.357 38.2571C227.813 37.545 228.041 36.7383 228.041 35.837V33.1165C227.819 33.2611 227.513 33.3946 227.123 33.517C226.745 33.6283 226.317 33.734 225.838 33.8342C225.36 33.9232 224.881 34.0066 224.403 34.0845C223.925 34.1513 223.491 34.2125 223.101 34.2681C222.267 34.3905 221.538 34.5852 220.915 34.8523C220.292 35.1193 219.808 35.4809 219.463 35.9371C219.118 36.3822 218.945 36.9386 218.945 37.6062C218.945 38.5742 219.296 39.3142 219.997 39.826C220.709 40.3267 221.61 40.5771 222.701 40.5771ZM252.201 45.5007C249.575 45.5007 247.316 44.9444 245.424 43.8317C243.544 42.7079 242.098 41.1501 241.085 39.1584C240.084 37.1667 239.583 34.8745 239.583 32.282C239.583 29.656 240.089 27.3527 241.102 25.3722C242.125 23.3804 243.577 21.8282 245.458 20.7156C247.338 19.5917 249.575 19.0298 252.167 19.0298C254.404 19.0298 256.362 19.436 258.042 20.2482C259.723 21.0605 261.052 22.201 262.031 23.6697C263.011 25.1385 263.55 26.8632 263.65 28.8438H256.941C256.752 27.5642 256.251 26.5349 255.439 25.756C254.638 24.966 253.586 24.571 252.284 24.571C251.183 24.571 250.22 24.8714 249.397 25.4723C248.584 26.062 247.95 26.9244 247.494 28.0593C247.038 29.1942 246.81 30.5684 246.81 32.1818C246.81 33.8175 247.032 35.2083 247.477 36.3544C247.934 37.5005 248.573 38.3739 249.397 38.9748C250.22 39.5756 251.183 39.8761 252.284 39.8761C253.096 39.8761 253.825 39.7092 254.471 39.3754C255.127 39.0415 255.667 38.5575 256.09 37.9233C256.524 37.2779 256.807 36.5046 256.941 35.6033H263.65C263.539 37.5617 263.005 39.2863 262.048 40.7773C261.102 42.2572 259.795 43.4144 258.126 44.2489C256.457 45.0835 254.482 45.5007 252.201 45.5007ZM281.839 19.3636V24.7045H266.4V19.3636H281.839ZM269.905 13.2216H277.015V37.1222C277.015 37.7786 277.115 38.2905 277.316 38.6577C277.516 39.0137 277.794 39.2641 278.15 39.4087C278.517 39.5534 278.94 39.6257 279.419 39.6257C279.752 39.6257 280.086 39.5979 280.42 39.5423C280.754 39.4755 281.01 39.4254 281.188 39.392L282.306 44.6829C281.95 44.7942 281.449 44.9221 280.804 45.0668C280.158 45.2225 279.374 45.3171 278.45 45.3505C276.737 45.4173 275.235 45.1892 273.944 44.6662C272.664 44.1432 271.669 43.331 270.956 42.2294C270.244 41.1278 269.894 39.737 269.905 38.0568V13.2216Z" fill="white"/>
<path d="M2.96591 70.017V68.4545H13.875V70.017H9.30114V83H7.53977V70.017H2.96591ZM18.092 83.2557C17.4007 83.2557 16.7733 83.1255 16.2099 82.8651C15.6464 82.5999 15.199 82.2188 14.8675 81.7216C14.5361 81.2197 14.3704 80.6136 14.3704 79.9034C14.3704 79.2784 14.4935 78.7718 14.7397 78.3835C14.9859 77.9905 15.315 77.6828 15.7269 77.4602C16.1388 77.2377 16.5934 77.072 17.0906 76.9631C17.5924 76.8494 18.0967 76.7595 18.6033 76.6932C19.2662 76.608 19.8036 76.544 20.2156 76.5014C20.6322 76.4541 20.9353 76.3759 21.1246 76.267C21.3188 76.1581 21.4158 75.9687 21.4158 75.6989V75.642C21.4158 74.9413 21.2241 74.3968 20.8406 74.0085C20.4618 73.6203 19.8865 73.4261 19.1147 73.4261C18.3145 73.4261 17.6871 73.6013 17.2326 73.9517C16.7781 74.3021 16.4585 74.6761 16.2738 75.0739L14.6829 74.5057C14.967 73.8428 15.3458 73.3267 15.8192 72.9574C16.2975 72.5833 16.8183 72.3229 17.3817 72.1761C17.9499 72.0246 18.5086 71.9489 19.0579 71.9489C19.4083 71.9489 19.8107 71.9915 20.2653 72.0767C20.7246 72.1572 21.1673 72.3253 21.5934 72.581C22.0243 72.8366 22.3817 73.2225 22.6658 73.7386C22.9499 74.2547 23.092 74.946 23.092 75.8125V83H21.4158V81.5227H21.3306C21.217 81.7595 21.0276 82.0128 20.7624 82.2827C20.4973 82.5526 20.1445 82.7822 19.7042 82.9716C19.2638 83.161 18.7264 83.2557 18.092 83.2557ZM18.3477 81.75C19.0105 81.75 19.5692 81.6198 20.0238 81.3594C20.4831 81.099 20.8287 80.7628 21.0607 80.3509C21.2975 79.9389 21.4158 79.5057 21.4158 79.0511V77.517C21.3448 77.6023 21.1886 77.6804 20.9471 77.7514C20.7103 77.8177 20.4357 77.8769 20.1232 77.929C19.8155 77.9763 19.5148 78.0189 19.2212 78.0568C18.9324 78.09 18.698 78.1184 18.5181 78.142C18.0825 78.1989 17.6753 78.2912 17.2965 78.419C16.9225 78.5421 16.6194 78.7292 16.3874 78.9801C16.1602 79.2263 16.0465 79.5625 16.0465 79.9886C16.0465 80.571 16.262 81.0114 16.6928 81.3097C17.1284 81.6032 17.68 81.75 18.3477 81.75ZM33.8786 74.5341L32.3729 74.9602C32.2782 74.7093 32.1385 74.4654 31.9538 74.2287C31.7739 73.9872 31.5277 73.7884 31.2152 73.6321C30.9027 73.4759 30.5026 73.3977 30.0149 73.3977C29.3473 73.3977 28.791 73.5516 28.3459 73.8594C27.9055 74.1624 27.6854 74.5483 27.6854 75.017C27.6854 75.4337 27.8369 75.7628 28.1399 76.0043C28.4429 76.2457 28.9164 76.447 29.5604 76.608L31.1797 77.0057C32.1551 77.2424 32.8819 77.6046 33.3601 78.0923C33.8383 78.5753 34.0774 79.1979 34.0774 79.9602C34.0774 80.5852 33.8975 81.1439 33.5376 81.6364C33.1825 82.1288 32.6854 82.517 32.0462 82.8011C31.407 83.0852 30.6636 83.2273 29.8161 83.2273C28.7034 83.2273 27.7824 82.9858 27.0533 82.5028C26.3241 82.0199 25.8625 81.3144 25.6683 80.3864L27.2592 79.9886C27.4107 80.5758 27.6972 81.0161 28.1186 81.3097C28.5447 81.6032 29.1011 81.75 29.7876 81.75C30.5689 81.75 31.1892 81.5843 31.6484 81.2528C32.1125 80.9167 32.3445 80.5142 32.3445 80.0455C32.3445 79.6667 32.2119 79.3494 31.9467 79.0938C31.6816 78.8333 31.2744 78.6392 30.7251 78.5114L28.907 78.0852C27.9079 77.8485 27.174 77.4815 26.7053 76.9844C26.2412 76.4825 26.0092 75.8551 26.0092 75.1023C26.0092 74.4867 26.1821 73.9422 26.5277 73.4688C26.8781 72.9953 27.3539 72.6236 27.9553 72.3537C28.5613 72.0838 29.2479 71.9489 30.0149 71.9489C31.0945 71.9489 31.942 72.1856 32.5575 72.6591C33.1778 73.1326 33.6181 73.7576 33.8786 74.5341ZM38.163 79.0227L38.1346 76.9489H38.4755L43.2482 72.0909H45.3221L40.2369 77.233H40.0948L38.163 79.0227ZM36.6005 83V68.4545H38.2766V83H36.6005ZM43.5323 83L39.271 77.6023L40.4641 76.4375L45.663 83H43.5323ZM55.2067 74.5341L53.701 74.9602C53.6063 74.7093 53.4666 74.4654 53.282 74.2287C53.102 73.9872 52.8558 73.7884 52.5433 73.6321C52.2308 73.4759 51.8307 73.3977 51.343 73.3977C50.6754 73.3977 50.1191 73.5516 49.674 73.8594C49.2337 74.1624 49.0135 74.5483 49.0135 75.017C49.0135 75.4337 49.165 75.7628 49.468 76.0043C49.7711 76.2457 50.2446 76.447 50.8885 76.608L52.5078 77.0057C53.4832 77.2424 54.21 77.6046 54.6882 78.0923C55.1664 78.5753 55.4055 79.1979 55.4055 79.9602C55.4055 80.5852 55.2256 81.1439 54.8658 81.6364C54.5107 82.1288 54.0135 82.517 53.3743 82.8011C52.7351 83.0852 51.9917 83.2273 51.1442 83.2273C50.0315 83.2273 49.1106 82.9858 48.3814 82.5028C47.6522 82.0199 47.1906 81.3144 46.9964 80.3864L48.5874 79.9886C48.7389 80.5758 49.0253 81.0161 49.4467 81.3097C49.8729 81.6032 50.4292 81.75 51.1158 81.75C51.897 81.75 52.5173 81.5843 52.9766 81.2528C53.4406 80.9167 53.6726 80.5142 53.6726 80.0455C53.6726 79.6667 53.54 79.3494 53.2749 79.0938C53.0097 78.8333 52.6025 78.6392 52.0533 78.5114L50.2351 78.0852C49.236 77.8485 48.5021 77.4815 48.0334 76.9844C47.5694 76.4825 47.3374 75.8551 47.3374 75.1023C47.3374 74.4867 47.5102 73.9422 47.8558 73.4688C48.2062 72.9953 48.6821 72.6236 49.2834 72.3537C49.8894 72.0838 50.576 71.9489 51.343 71.9489C52.4226 71.9489 53.2701 72.1856 53.8857 72.6591C54.5059 73.1326 54.9463 73.7576 55.2067 74.5341ZM66.7638 83.2557C66.0726 83.2557 65.4452 83.1255 64.8817 82.8651C64.3183 82.5999 63.8709 82.2188 63.5394 81.7216C63.208 81.2197 63.0423 80.6136 63.0423 79.9034C63.0423 79.2784 63.1654 78.7718 63.4116 78.3835C63.6578 77.9905 63.9869 77.6828 64.3988 77.4602C64.8107 77.2377 65.2653 77.072 65.7624 76.9631C66.2643 76.8494 66.7686 76.7595 67.2752 76.6932C67.9381 76.608 68.4755 76.544 68.8874 76.5014C69.3041 76.4541 69.6071 76.3759 69.7965 76.267C69.9906 76.1581 70.0877 75.9687 70.0877 75.6989V75.642C70.0877 74.9413 69.896 74.3968 69.5124 74.0085C69.1336 73.6203 68.5584 73.4261 67.7866 73.4261C66.9864 73.4261 66.359 73.6013 65.9045 73.9517C65.4499 74.3021 65.1303 74.6761 64.9457 75.0739L63.3548 74.5057C63.6388 73.8428 64.0176 73.3267 64.4911 72.9574C64.9693 72.5833 65.4902 72.3229 66.0536 72.1761C66.6218 72.0246 67.1805 71.9489 67.7298 71.9489C68.0801 71.9489 68.4826 71.9915 68.9371 72.0767C69.3964 72.1572 69.8391 72.3253 70.2653 72.581C70.6961 72.8366 71.0536 73.2225 71.3377 73.7386C71.6218 74.2547 71.7638 74.946 71.7638 75.8125V83H70.0877V81.5227H70.0025C69.8888 81.7595 69.6995 82.0128 69.4343 82.2827C69.1692 82.5526 68.8164 82.7822 68.3761 82.9716C67.9357 83.161 67.3983 83.2557 66.7638 83.2557ZM67.0195 81.75C67.6824 81.75 68.2411 81.6198 68.6957 81.3594C69.1549 81.099 69.5006 80.7628 69.7326 80.3509C69.9693 79.9389 70.0877 79.5057 70.0877 79.0511V77.517C70.0167 77.6023 69.8604 77.6804 69.619 77.7514C69.3822 77.8177 69.1076 77.8769 68.7951 77.929C68.4873 77.9763 68.1867 78.0189 67.8931 78.0568C67.6043 78.09 67.3699 78.1184 67.19 78.142C66.7544 78.1989 66.3472 78.2912 65.9684 78.419C65.5943 78.5421 65.2913 78.7292 65.0593 78.9801C64.832 79.2263 64.7184 79.5625 64.7184 79.9886C64.7184 80.571 64.9338 81.0114 65.3647 81.3097C65.8003 81.6032 66.3519 81.75 67.0195 81.75ZM74.8232 83V72.0909H76.4425V73.7386H76.5561C76.755 73.1989 77.1148 72.7609 77.6357 72.4247C78.1565 72.0885 78.7436 71.9205 79.397 71.9205C79.5201 71.9205 79.674 71.9228 79.8587 71.9276C80.0433 71.9323 80.183 71.9394 80.2777 71.9489V73.6534C80.2209 73.6392 80.0907 73.6179 79.8871 73.5895C79.6882 73.5563 79.4775 73.5398 79.255 73.5398C78.7247 73.5398 78.2512 73.651 77.8345 73.8736C77.4226 74.0914 77.0959 74.3944 76.8544 74.7827C76.6177 75.1662 76.4993 75.6042 76.4993 76.0966V83H74.8232ZM86.5064 83.2273C85.4553 83.2273 84.5485 82.9953 83.7862 82.5312C83.0286 82.0625 82.4439 81.4091 82.032 80.571C81.6248 79.7282 81.4212 78.7481 81.4212 77.6307C81.4212 76.5133 81.6248 75.5284 82.032 74.6761C82.4439 73.8191 83.0168 73.1515 83.7507 72.6733C84.4893 72.1903 85.3511 71.9489 86.3359 71.9489C86.9041 71.9489 87.4652 72.0436 88.0192 72.233C88.5732 72.4223 89.0774 72.7301 89.532 73.1562C89.9865 73.5777 90.3487 74.1364 90.6186 74.8324C90.8885 75.5284 91.0234 76.3854 91.0234 77.4034V78.1136H82.6143V76.6648H89.3189C89.3189 76.0492 89.1958 75.5 88.9496 75.017C88.7081 74.5341 88.3625 74.1529 87.9126 73.8736C87.4676 73.5942 86.942 73.4545 86.3359 73.4545C85.6683 73.4545 85.0907 73.6203 84.603 73.9517C84.12 74.2784 83.7483 74.7045 83.4879 75.2301C83.2275 75.7557 83.0973 76.3191 83.0973 76.9205V77.8864C83.0973 78.7102 83.2393 79.4086 83.5234 79.9815C83.8123 80.5497 84.2124 80.983 84.7237 81.2812C85.2351 81.5748 85.8293 81.7216 86.5064 81.7216C86.9467 81.7216 87.3445 81.66 87.6996 81.5369C88.0594 81.4091 88.3696 81.2197 88.63 80.9688C88.8904 80.7131 89.0916 80.3958 89.2337 80.017L90.853 80.4716C90.6825 81.0208 90.3961 81.5038 89.9936 81.9205C89.5911 82.3324 89.094 82.6544 88.5021 82.8864C87.9103 83.1136 87.245 83.2273 86.5064 83.2273ZM99.4254 83V68.4545H101.102V73.8239H101.244C101.367 73.6345 101.537 73.393 101.755 73.0994C101.978 72.8011 102.295 72.536 102.707 72.304C103.123 72.0672 103.687 71.9489 104.397 71.9489C105.316 71.9489 106.125 72.1785 106.826 72.6378C107.527 73.0971 108.074 73.7481 108.467 74.5909C108.86 75.4337 109.056 76.428 109.056 77.5739C109.056 78.7292 108.86 79.7306 108.467 80.5781C108.074 81.4209 107.529 82.0743 106.833 82.5384C106.137 82.9976 105.335 83.2273 104.425 83.2273C103.725 83.2273 103.164 83.1113 102.742 82.8793C102.321 82.6425 101.996 82.375 101.769 82.0767C101.542 81.7737 101.367 81.5227 101.244 81.3239H101.045V83H99.4254ZM101.073 77.5455C101.073 78.3693 101.194 79.0961 101.435 79.7259C101.677 80.3509 102.03 80.8409 102.494 81.196C102.958 81.5464 103.526 81.7216 104.198 81.7216C104.899 81.7216 105.484 81.5369 105.952 81.1676C106.426 80.7936 106.781 80.2917 107.018 79.6619C107.259 79.0275 107.38 78.322 107.38 77.5455C107.38 76.7784 107.262 76.0871 107.025 75.4716C106.793 74.8513 106.44 74.3613 105.967 74.0014C105.498 73.6368 104.908 73.4545 104.198 73.4545C103.516 73.4545 102.943 73.6274 102.479 73.973C102.015 74.3139 101.665 74.7921 101.428 75.4077C101.192 76.0185 101.073 76.7311 101.073 77.5455ZM116.194 83.2273C115.143 83.2273 114.236 82.9953 113.474 82.5312C112.716 82.0625 112.131 81.4091 111.719 80.571C111.312 79.7282 111.109 78.7481 111.109 77.6307C111.109 76.5133 111.312 75.5284 111.719 74.6761C112.131 73.8191 112.704 73.1515 113.438 72.6733C114.177 72.1903 115.039 71.9489 116.023 71.9489C116.592 71.9489 117.153 72.0436 117.707 72.233C118.261 72.4223 118.765 72.7301 119.219 73.1562C119.674 73.5777 120.036 74.1364 120.306 74.8324C120.576 75.5284 120.711 76.3854 120.711 77.4034V78.1136H112.302V76.6648H119.006C119.006 76.0492 118.883 75.5 118.637 75.017C118.396 74.5341 118.05 74.1529 117.6 73.8736C117.155 73.5942 116.629 73.4545 116.023 73.4545C115.356 73.4545 114.778 73.6203 114.29 73.9517C113.808 74.2784 113.436 74.7045 113.175 75.2301C112.915 75.7557 112.785 76.3191 112.785 76.9205V77.8864C112.785 78.7102 112.927 79.4086 113.211 79.9815C113.5 80.5497 113.9 80.983 114.411 81.2812C114.923 81.5748 115.517 81.7216 116.194 81.7216C116.634 81.7216 117.032 81.66 117.387 81.5369C117.747 81.4091 118.057 81.2197 118.317 80.9688C118.578 80.7131 118.779 80.3958 118.921 80.017L120.54 80.4716C120.37 81.0208 120.084 81.5038 119.681 81.9205C119.279 82.3324 118.781 82.6544 118.19 82.8864C117.598 83.1136 116.933 83.2273 116.194 83.2273ZM128.005 72.0909V73.5114H122.352V72.0909H128.005ZM123.999 69.4773H125.675V79.875C125.675 80.3485 125.744 80.7036 125.881 80.9403C126.023 81.1723 126.203 81.3286 126.421 81.4091C126.644 81.4848 126.878 81.5227 127.124 81.5227C127.309 81.5227 127.46 81.5133 127.579 81.4943C127.697 81.4706 127.792 81.4517 127.863 81.4375L128.204 82.9432C128.09 82.9858 127.932 83.0284 127.728 83.071C127.524 83.1184 127.266 83.142 126.954 83.142C126.48 83.142 126.016 83.0402 125.562 82.8366C125.112 82.633 124.738 82.3229 124.44 81.9062C124.146 81.4896 123.999 80.964 123.999 80.3295V69.4773ZM135.271 72.0909V73.5114H129.617V72.0909H135.271ZM131.265 69.4773H132.941V79.875C132.941 80.3485 133.01 80.7036 133.147 80.9403C133.289 81.1723 133.469 81.3286 133.687 81.4091C133.909 81.4848 134.144 81.5227 134.39 81.5227C134.575 81.5227 134.726 81.5133 134.844 81.4943C134.963 81.4706 135.058 81.4517 135.129 81.4375L135.469 82.9432C135.356 82.9858 135.197 83.0284 134.994 83.071C134.79 83.1184 134.532 83.142 134.219 83.142C133.746 83.142 133.282 83.0402 132.827 82.8366C132.378 82.633 132.004 82.3229 131.705 81.9062C131.412 81.4896 131.265 80.964 131.265 80.3295V69.4773ZM142.249 83.2273C141.197 83.2273 140.291 82.9953 139.528 82.5312C138.771 82.0625 138.186 81.4091 137.774 80.571C137.367 79.7282 137.163 78.7481 137.163 77.6307C137.163 76.5133 137.367 75.5284 137.774 74.6761C138.186 73.8191 138.759 73.1515 139.493 72.6733C140.232 72.1903 141.093 71.9489 142.078 71.9489C142.646 71.9489 143.207 72.0436 143.761 72.233C144.315 72.4223 144.82 72.7301 145.274 73.1562C145.729 73.5777 146.091 74.1364 146.361 74.8324C146.631 75.5284 146.766 76.3854 146.766 77.4034V78.1136H138.357V76.6648H145.061C145.061 76.0492 144.938 75.5 144.692 75.017C144.45 74.5341 144.105 74.1529 143.655 73.8736C143.21 73.5942 142.684 73.4545 142.078 73.4545C141.411 73.4545 140.833 73.6203 140.345 73.9517C139.862 74.2784 139.491 74.7045 139.23 75.2301C138.97 75.7557 138.839 76.3191 138.839 76.9205V77.8864C138.839 78.7102 138.982 79.4086 139.266 79.9815C139.554 80.5497 139.955 80.983 140.466 81.2812C140.977 81.5748 141.571 81.7216 142.249 81.7216C142.689 81.7216 143.087 81.66 143.442 81.5369C143.802 81.4091 144.112 81.2197 144.372 80.9688C144.633 80.7131 144.834 80.3958 144.976 80.017L146.595 80.4716C146.425 81.0208 146.138 81.5038 145.736 81.9205C145.333 82.3324 144.836 82.6544 144.244 82.8864C143.652 83.1136 142.987 83.2273 142.249 83.2273ZM149.315 83V72.0909H150.935V73.7386H151.048C151.247 73.1989 151.607 72.7609 152.128 72.4247C152.649 72.0885 153.236 71.9205 153.889 71.9205C154.012 71.9205 154.166 71.9228 154.351 71.9276C154.536 71.9323 154.675 71.9394 154.77 71.9489V73.6534C154.713 73.6392 154.583 73.6179 154.379 73.5895C154.18 73.5563 153.97 73.5398 153.747 73.5398C153.217 73.5398 152.743 73.651 152.327 73.8736C151.915 74.0914 151.588 74.3944 151.347 74.7827C151.11 75.1662 150.991 75.6042 150.991 76.0966V83H149.315ZM164.853 83L161.529 72.0909H163.291L165.649 80.4432H165.762L168.092 72.0909H169.882L172.183 80.4148H172.297L174.654 72.0909H176.416L173.092 83H171.444L169.058 74.6193H168.887L166.501 83H164.853ZM178.632 83V72.0909H180.308V83H178.632ZM179.484 70.2727C179.157 70.2727 178.876 70.1615 178.639 69.9389C178.407 69.7164 178.291 69.4489 178.291 69.1364C178.291 68.8239 178.407 68.5563 178.639 68.3338C178.876 68.1113 179.157 68 179.484 68C179.811 68 180.09 68.1113 180.322 68.3338C180.559 68.5563 180.677 68.8239 180.677 69.1364C180.677 69.4489 180.559 69.7164 180.322 69.9389C180.09 70.1615 179.811 70.2727 179.484 70.2727ZM188.122 72.0909V73.5114H182.469V72.0909H188.122ZM184.116 69.4773H185.793V79.875C185.793 80.3485 185.861 80.7036 185.999 80.9403C186.141 81.1723 186.321 81.3286 186.538 81.4091C186.761 81.4848 186.995 81.5227 187.241 81.5227C187.426 81.5227 187.578 81.5133 187.696 81.4943C187.814 81.4706 187.909 81.4517 187.98 81.4375L188.321 82.9432C188.207 82.9858 188.049 83.0284 187.845 83.071C187.642 83.1184 187.384 83.142 187.071 83.142C186.598 83.142 186.134 83.0402 185.679 82.8366C185.229 82.633 184.855 82.3229 184.557 81.9062C184.263 81.4896 184.116 80.964 184.116 80.3295V69.4773ZM192.554 76.4375V83H190.878V68.4545H192.554V73.7955H192.696C192.952 73.232 193.335 72.7846 193.847 72.4531C194.363 72.117 195.049 71.9489 195.906 71.9489C196.65 71.9489 197.301 72.098 197.859 72.3963C198.418 72.6899 198.851 73.142 199.159 73.7528C199.472 74.3589 199.628 75.1307 199.628 76.0682V83H197.952V76.1818C197.952 75.3153 197.727 74.6454 197.277 74.1719C196.832 73.6937 196.214 73.4545 195.423 73.4545C194.874 73.4545 194.382 73.5705 193.946 73.8026C193.515 74.0346 193.174 74.3731 192.923 74.8182C192.677 75.2633 192.554 75.803 192.554 76.4375ZM211.529 83.2557C210.838 83.2557 210.211 83.1255 209.647 82.8651C209.084 82.5999 208.636 82.2188 208.305 81.7216C207.974 81.2197 207.808 80.6136 207.808 79.9034C207.808 79.2784 207.931 78.7718 208.177 78.3835C208.423 77.9905 208.752 77.6828 209.164 77.4602C209.576 77.2377 210.031 77.072 210.528 76.9631C211.03 76.8494 211.534 76.7595 212.041 76.6932C212.704 76.608 213.241 76.544 213.653 76.5014C214.07 76.4541 214.373 76.3759 214.562 76.267C214.756 76.1581 214.853 75.9687 214.853 75.6989V75.642C214.853 74.9413 214.662 74.3968 214.278 74.0085C213.899 73.6203 213.324 73.4261 212.552 73.4261C211.752 73.4261 211.125 73.6013 210.67 73.9517C210.216 74.3021 209.896 74.6761 209.711 75.0739L208.12 74.5057C208.404 73.8428 208.783 73.3267 209.257 72.9574C209.735 72.5833 210.256 72.3229 210.819 72.1761C211.387 72.0246 211.946 71.9489 212.495 71.9489C212.846 71.9489 213.248 71.9915 213.703 72.0767C214.162 72.1572 214.605 72.3253 215.031 72.581C215.462 72.8366 215.819 73.2225 216.103 73.7386C216.387 74.2547 216.529 74.946 216.529 75.8125V83H214.853V81.5227H214.768C214.654 81.7595 214.465 82.0128 214.2 82.2827C213.935 82.5526 213.582 82.7822 213.142 82.9716C212.701 83.161 212.164 83.2557 211.529 83.2557ZM211.785 81.75C212.448 81.75 213.007 81.6198 213.461 81.3594C213.921 81.099 214.266 80.7628 214.498 80.3509C214.735 79.9389 214.853 79.5057 214.853 79.0511V77.517C214.782 77.6023 214.626 77.6804 214.385 77.7514C214.148 77.8177 213.873 77.8769 213.561 77.929C213.253 77.9763 212.952 78.0189 212.659 78.0568C212.37 78.09 212.136 78.1184 211.956 78.142C211.52 78.1989 211.113 78.2912 210.734 78.419C210.36 78.5421 210.057 78.7292 209.825 78.9801C209.598 79.2263 209.484 79.5625 209.484 79.9886C209.484 80.571 209.699 81.0114 210.13 81.3097C210.566 81.6032 211.118 81.75 211.785 81.75ZM229.958 72.0909V73.5114H224.305V72.0909H229.958ZM225.952 69.4773H227.629V79.875C227.629 80.3485 227.697 80.7036 227.835 80.9403C227.977 81.1723 228.156 81.3286 228.374 81.4091C228.597 81.4848 228.831 81.5227 229.077 81.5227C229.262 81.5227 229.414 81.5133 229.532 81.4943C229.65 81.4706 229.745 81.4517 229.816 81.4375L230.157 82.9432C230.043 82.9858 229.885 83.0284 229.681 83.071C229.478 83.1184 229.219 83.142 228.907 83.142C228.433 83.142 227.969 83.0402 227.515 82.8366C227.065 82.633 226.691 82.3229 226.393 81.9062C226.099 81.4896 225.952 80.964 225.952 80.3295V69.4773ZM236.936 83.2273C235.885 83.2273 234.978 82.9953 234.216 82.5312C233.458 82.0625 232.874 81.4091 232.462 80.571C232.054 79.7282 231.851 78.7481 231.851 77.6307C231.851 76.5133 232.054 75.5284 232.462 74.6761C232.874 73.8191 233.446 73.1515 234.18 72.6733C234.919 72.1903 235.781 71.9489 236.766 71.9489C237.334 71.9489 237.895 72.0436 238.449 72.233C239.003 72.4223 239.507 72.7301 239.962 73.1562C240.416 73.5777 240.778 74.1364 241.048 74.8324C241.318 75.5284 241.453 76.3854 241.453 77.4034V78.1136H233.044V76.6648H239.749C239.749 76.0492 239.625 75.5 239.379 75.017C239.138 74.5341 238.792 74.1529 238.342 73.8736C237.897 73.5942 237.372 73.4545 236.766 73.4545C236.098 73.4545 235.52 73.6203 235.033 73.9517C234.55 74.2784 234.178 74.7045 233.918 75.2301C233.657 75.7557 233.527 76.3191 233.527 76.9205V77.8864C233.527 78.7102 233.669 79.4086 233.953 79.9815C234.242 80.5497 234.642 80.983 235.153 81.2812C235.665 81.5748 236.259 81.7216 236.936 81.7216C237.376 81.7216 237.774 81.66 238.129 81.5369C238.489 81.4091 238.799 81.2197 239.06 80.9688C239.32 80.7131 239.521 80.3958 239.663 80.017L241.283 80.4716C241.112 81.0208 240.826 81.5038 240.423 81.9205C240.021 82.3324 239.524 82.6544 238.932 82.8864C238.34 83.1136 237.675 83.2273 236.936 83.2273ZM247.213 83.2557C246.522 83.2557 245.894 83.1255 245.331 82.8651C244.768 82.5999 244.32 82.2188 243.989 81.7216C243.657 81.2197 243.491 80.6136 243.491 79.9034C243.491 79.2784 243.615 78.7718 243.861 78.3835C244.107 77.9905 244.436 77.6828 244.848 77.4602C245.26 77.2377 245.714 77.072 246.212 76.9631C246.714 76.8494 247.218 76.7595 247.724 76.6932C248.387 76.608 248.925 76.544 249.337 76.5014C249.753 76.4541 250.056 76.3759 250.246 76.267C250.44 76.1581 250.537 75.9687 250.537 75.6989V75.642C250.537 74.9413 250.345 74.3968 249.962 74.0085C249.583 73.6203 249.008 73.4261 248.236 73.4261C247.436 73.4261 246.808 73.6013 246.354 73.9517C245.899 74.3021 245.58 74.6761 245.395 75.0739L243.804 74.5057C244.088 73.8428 244.467 73.3267 244.94 72.9574C245.419 72.5833 245.939 72.3229 246.503 72.1761C247.071 72.0246 247.63 71.9489 248.179 71.9489C248.529 71.9489 248.932 71.9915 249.386 72.0767C249.846 72.1572 250.288 72.3253 250.714 72.581C251.145 72.8366 251.503 73.2225 251.787 73.7386C252.071 74.2547 252.213 74.946 252.213 75.8125V83H250.537V81.5227H250.452C250.338 81.7595 250.149 82.0128 249.884 82.2827C249.618 82.5526 249.266 82.7822 248.825 82.9716C248.385 83.161 247.848 83.2557 247.213 83.2557ZM247.469 81.75C248.132 81.75 248.69 81.6198 249.145 81.3594C249.604 81.099 249.95 80.7628 250.182 80.3509C250.419 79.9389 250.537 79.5057 250.537 79.0511V77.517C250.466 77.6023 250.31 77.6804 250.068 77.7514C249.831 77.8177 249.557 77.8769 249.244 77.929C248.937 77.9763 248.636 78.0189 248.342 78.0568C248.054 78.09 247.819 78.1184 247.639 78.142C247.204 78.1989 246.796 78.2912 246.418 78.419C246.044 78.5421 245.741 78.7292 245.509 78.9801C245.281 79.2263 245.168 79.5625 245.168 79.9886C245.168 80.571 245.383 81.0114 245.814 81.3097C246.25 81.6032 246.801 81.75 247.469 81.75ZM255.272 83V72.0909H256.892V73.7955H257.034C257.261 73.2131 257.628 72.7609 258.135 72.4389C258.641 72.1122 259.25 71.9489 259.96 71.9489C260.68 71.9489 261.279 72.1122 261.757 72.4389C262.24 72.7609 262.616 73.2131 262.886 73.7955H263C263.279 73.232 263.698 72.7846 264.257 72.4531C264.815 72.117 265.485 71.9489 266.267 71.9489C267.242 71.9489 268.04 72.2543 268.66 72.8651C269.28 73.4711 269.591 74.4157 269.591 75.6989V83H267.914V75.6989C267.914 74.8939 267.694 74.3187 267.254 73.973C266.814 73.6274 266.295 73.4545 265.699 73.4545C264.931 73.4545 264.337 73.6866 263.916 74.1506C263.494 74.6098 263.284 75.1922 263.284 75.8977V83H261.579V75.5284C261.579 74.9081 261.378 74.4086 260.975 74.0298C260.573 73.6463 260.055 73.4545 259.42 73.4545C258.984 73.4545 258.577 73.5705 258.199 73.8026C257.824 74.0346 257.521 74.3565 257.289 74.7685C257.062 75.1757 256.949 75.6468 256.949 76.1818V83H255.272ZM274.871 68.4545L274.729 78.9091H273.081L272.939 68.4545H274.871ZM273.905 83.1136C273.555 83.1136 273.254 82.9882 273.003 82.7372C272.752 82.4863 272.627 82.1856 272.627 81.8352C272.627 81.4848 272.752 81.1842 273.003 80.9332C273.254 80.6823 273.555 80.5568 273.905 80.5568C274.256 80.5568 274.556 80.6823 274.807 80.9332C275.058 81.1842 275.184 81.4848 275.184 81.8352C275.184 82.0672 275.124 82.2803 275.006 82.4744C274.892 82.6686 274.739 82.8248 274.544 82.9432C274.355 83.0568 274.142 83.1136 273.905 83.1136Z" fill="white"/>
<path d="M92 104H2" stroke="#29ABE2" stroke-width="3" stroke-linecap="round"/>
</svg>
