<svg width="223" height="33" viewBox="0 0 223 33" fill="none" xmlns="http://www.w3.org/2000/svg">
<path d="M3.45987 24H-0.000355082L5.27202 8.72727H9.43324L14.6982 24H11.2379L7.41229 12.2173H7.29297L3.45987 24ZM3.24361 17.9968H11.4169V20.5174H3.24361V17.9968ZM20.1644 24.1864C19.2944 24.1864 18.5064 23.9627 17.8004 23.5153C17.0994 23.0629 16.5426 22.3991 16.13 21.5241C15.7223 20.6442 15.5185 19.5653 15.5185 18.2876C15.5185 16.9751 15.7298 15.8839 16.1523 15.0138C16.5749 14.1388 17.1367 13.4851 17.8377 13.0526C18.5437 12.6151 19.3168 12.3963 20.157 12.3963C20.7983 12.3963 21.3327 12.5057 21.7603 12.7244C22.1928 12.9382 22.5408 13.2067 22.8043 13.5298C23.0728 13.848 23.2766 14.1612 23.4158 14.4695H23.5128V8.72727H26.6822V24H23.5501V22.1655H23.4158C23.2667 22.4837 23.0554 22.7994 22.782 23.1126C22.5135 23.4208 22.163 23.6768 21.7305 23.8807C21.3029 24.0845 20.7809 24.1864 20.1644 24.1864ZM21.1712 21.6584C21.6832 21.6584 22.1158 21.5192 22.4688 21.2408C22.8267 20.9574 23.1001 20.5621 23.2891 20.055C23.483 19.5479 23.5799 18.9538 23.5799 18.2727C23.5799 17.5916 23.4854 17 23.2965 16.4979C23.1076 15.9957 22.8342 15.608 22.4762 15.3345C22.1183 15.0611 21.6832 14.9244 21.1712 14.9244C20.6491 14.9244 20.2092 15.0661 19.8512 15.3494C19.4933 15.6328 19.2223 16.0256 19.0384 16.5277C18.8544 17.0298 18.7624 17.6115 18.7624 18.2727C18.7624 18.9389 18.8544 19.5281 19.0384 20.0401C19.2273 20.5472 19.4982 20.945 19.8512 21.2333C20.2092 21.5167 20.6491 21.6584 21.1712 21.6584ZM33.515 24.1864C32.645 24.1864 31.857 23.9627 31.151 23.5153C30.45 23.0629 29.8932 22.3991 29.4806 21.5241C29.0729 20.6442 28.8691 19.5653 28.8691 18.2876C28.8691 16.9751 29.0803 15.8839 29.5029 15.0138C29.9255 14.1388 30.4873 13.4851 31.1883 13.0526C31.8943 12.6151 32.6673 12.3963 33.5075 12.3963C34.1489 12.3963 34.6833 12.5057 35.1109 12.7244C35.5434 12.9382 35.8914 13.2067 36.1549 13.5298C36.4234 13.848 36.6272 14.1612 36.7664 14.4695H36.8634V8.72727H40.0328V24H36.9007V22.1655H36.7664C36.6173 22.4837 36.406 22.7994 36.1325 23.1126C35.8641 23.4208 35.5136 23.6768 35.0811 23.8807C34.6535 24.0845 34.1315 24.1864 33.515 24.1864ZM34.5218 21.6584C35.0338 21.6584 35.4664 21.5192 35.8193 21.2408C36.1773 20.9574 36.4507 20.5621 36.6396 20.055C36.8335 19.5479 36.9305 18.9538 36.9305 18.2727C36.9305 17.5916 36.836 17 36.6471 16.4979C36.4582 15.9957 36.1847 15.608 35.8268 15.3345C35.4688 15.0611 35.0338 14.9244 34.5218 14.9244C33.9997 14.9244 33.5597 15.0661 33.2018 15.3494C32.8438 15.6328 32.5729 16.0256 32.3889 16.5277C32.205 17.0298 32.113 17.6115 32.113 18.2727C32.113 18.9389 32.205 19.5281 32.3889 20.0401C32.5779 20.5472 32.8488 20.945 33.2018 21.2333C33.5597 21.5167 33.9997 21.6584 34.5218 21.6584ZM50.6819 17.3778V24H47.5051V12.5455H50.5328V14.5664H50.667C50.9205 13.9002 51.3456 13.3732 51.9422 12.9854C52.5388 12.5927 53.2622 12.3963 54.1123 12.3963C54.9078 12.3963 55.6013 12.5703 56.1929 12.9183C56.7845 13.2663 57.2444 13.7635 57.5725 14.4098C57.9007 15.0511 58.0647 15.8168 58.0647 16.7067V24H54.8879V17.2734C54.8928 16.5724 54.7139 16.0256 54.3509 15.6328C53.988 15.2351 53.4884 15.0362 52.852 15.0362C52.4244 15.0362 52.0466 15.1282 51.7185 15.3121C51.3953 15.4961 51.1418 15.7646 50.9578 16.1175C50.7789 16.4656 50.6869 16.8857 50.6819 17.3778ZM65.7887 24.2237C64.6104 24.2237 63.5962 23.9851 62.7461 23.5078C61.9009 23.0256 61.2496 22.3445 60.7923 21.4645C60.3349 20.5795 60.1062 19.533 60.1062 18.3249C60.1062 17.1467 60.3349 16.1126 60.7923 15.2227C61.2496 14.3327 61.8935 13.6392 62.7237 13.142C63.5589 12.6449 64.5384 12.3963 65.6619 12.3963C66.4176 12.3963 67.1211 12.5181 67.7724 12.7617C68.4286 13.0004 69.0004 13.3608 69.4876 13.843C69.9798 14.3253 70.3626 14.9318 70.636 15.6626C70.9094 16.3885 71.0462 17.2386 71.0462 18.2131V19.0856H61.3739V17.1168H68.0558C68.0558 16.6594 67.9563 16.2543 67.7575 15.9013C67.5586 15.5483 67.2827 15.2724 66.9297 15.0735C66.5817 14.8697 66.1765 14.7678 65.7141 14.7678C65.2319 14.7678 64.8043 14.8796 64.4315 15.1033C64.0636 15.3221 63.7752 15.6179 63.5664 15.9908C63.3576 16.3587 63.2507 16.7688 63.2457 17.2212V19.093C63.2457 19.6598 63.3501 20.1495 63.5589 20.5621C63.7727 20.9748 64.0735 21.293 64.4613 21.5167C64.8491 21.7404 65.3089 21.8523 65.8409 21.8523C66.1939 21.8523 66.517 21.8026 66.8104 21.7031C67.1037 21.6037 67.3548 21.4545 67.5636 21.2557C67.7724 21.0568 67.9315 20.8132 68.0408 20.5249L70.979 20.7188C70.8299 21.4247 70.5241 22.0412 70.0618 22.5682C69.6044 23.0902 69.0128 23.4979 68.2869 23.7912C67.5661 24.0795 66.7333 24.2237 65.7887 24.2237ZM75.2969 24L72.1797 12.5455H75.3938L77.1687 20.2415H77.2731L79.1225 12.5455H82.277L84.1562 20.1967H84.2532L85.9982 12.5455H89.2049L86.0952 24H82.7319L80.7631 16.7962H80.6214L78.6527 24H75.2969ZM100.935 24.2237C99.7621 24.2237 98.7528 23.9751 97.9077 23.478C97.0675 22.9759 96.4212 22.2798 95.9688 21.3899C95.5213 20.5 95.2976 19.4759 95.2976 18.3175C95.2976 17.1442 95.5238 16.1151 95.9762 15.2301C96.4336 14.3402 97.0824 13.6467 97.9226 13.1495C98.7628 12.6474 99.7621 12.3963 100.92 12.3963C101.92 12.3963 102.795 12.5778 103.545 12.9407C104.296 13.3036 104.89 13.8132 105.328 14.4695C105.765 15.1257 106.006 15.8963 106.051 16.7812H103.053C102.969 16.2095 102.745 15.7496 102.382 15.4016C102.024 15.0487 101.554 14.8722 100.973 14.8722C100.48 14.8722 100.05 15.0064 99.6825 15.2749C99.3196 15.5384 99.0362 15.9237 98.8324 16.4308C98.6286 16.9379 98.5266 17.5518 98.5266 18.2727C98.5266 19.0036 98.6261 19.625 98.8249 20.1371C99.0288 20.6491 99.3146 21.0394 99.6825 21.3079C100.05 21.5763 100.48 21.7106 100.973 21.7106C101.336 21.7106 101.661 21.636 101.95 21.4869C102.243 21.3377 102.484 21.1214 102.673 20.8381C102.867 20.5497 102.994 20.2042 103.053 19.8015H106.051C106.001 20.6765 105.763 21.4471 105.335 22.1133C104.913 22.7745 104.328 23.2915 103.583 23.6644C102.837 24.0373 101.955 24.2237 100.935 24.2237ZM113.261 24.2237C112.102 24.2237 111.1 23.9776 110.255 23.4854C109.415 22.9883 108.766 22.2972 108.309 21.4123C107.851 20.5224 107.623 19.4908 107.623 18.3175C107.623 17.1342 107.851 16.1001 108.309 15.2152C108.766 14.3253 109.415 13.6342 110.255 13.142C111.1 12.6449 112.102 12.3963 113.261 12.3963C114.419 12.3963 115.418 12.6449 116.258 13.142C117.104 13.6342 117.755 14.3253 118.212 15.2152C118.67 16.1001 118.898 17.1342 118.898 18.3175C118.898 19.4908 118.67 20.5224 118.212 21.4123C117.755 22.2972 117.104 22.9883 116.258 23.4854C115.418 23.9776 114.419 24.2237 113.261 24.2237ZM113.275 21.7628C113.802 21.7628 114.242 21.6136 114.595 21.3153C114.948 21.0121 115.214 20.5994 115.393 20.0774C115.577 19.5554 115.669 18.9613 115.669 18.2951C115.669 17.6289 115.577 17.0348 115.393 16.5128C115.214 15.9908 114.948 15.5781 114.595 15.2749C114.242 14.9716 113.802 14.82 113.275 14.82C112.744 14.82 112.296 14.9716 111.933 15.2749C111.575 15.5781 111.304 15.9908 111.12 16.5128C110.941 17.0348 110.852 17.6289 110.852 18.2951C110.852 18.9613 110.941 19.5554 111.12 20.0774C111.304 20.5994 111.575 21.0121 111.933 21.3153C112.296 21.6136 112.744 21.7628 113.275 21.7628ZM124.141 17.3778V24H120.964V12.5455H123.992V14.5664H124.126C124.38 13.9002 124.805 13.3732 125.401 12.9854C125.998 12.5927 126.721 12.3963 127.571 12.3963C128.367 12.3963 129.06 12.5703 129.652 12.9183C130.244 13.2663 130.703 13.7635 131.032 14.4098C131.36 15.0511 131.524 15.8168 131.524 16.7067V24H128.347V17.2734C128.352 16.5724 128.173 16.0256 127.81 15.6328C127.447 15.2351 126.947 15.0362 126.311 15.0362C125.883 15.0362 125.506 15.1282 125.177 15.3121C124.854 15.4961 124.601 15.7646 124.417 16.1175C124.238 16.4656 124.146 16.8857 124.141 17.3778ZM140.12 12.5455V14.9318H133.222V12.5455H140.12ZM134.788 9.80114H137.965V20.4801C137.965 20.7734 138.01 21.0021 138.099 21.1662C138.189 21.3253 138.313 21.4371 138.472 21.5018C138.636 21.5664 138.825 21.5987 139.039 21.5987C139.188 21.5987 139.337 21.5863 139.486 21.5614C139.635 21.5316 139.75 21.5092 139.829 21.4943L140.329 23.8583C140.17 23.908 139.946 23.9652 139.658 24.0298C139.369 24.0994 139.019 24.1417 138.606 24.1566C137.841 24.1864 137.17 24.0845 136.593 23.8509C136.021 23.6172 135.576 23.2543 135.258 22.7621C134.94 22.2699 134.783 21.6484 134.788 20.8977V9.80114ZM145.456 24.2163C144.725 24.2163 144.074 24.0895 143.502 23.8359C142.93 23.5774 142.478 23.1971 142.145 22.695C141.817 22.1879 141.653 21.5565 141.653 20.8008C141.653 20.1644 141.77 19.63 142.003 19.1974C142.237 18.7649 142.555 18.4169 142.958 18.1534C143.36 17.8899 143.818 17.6911 144.33 17.5568C144.847 17.4226 145.389 17.3281 145.956 17.2734C146.622 17.2038 147.159 17.1392 147.566 17.0795C147.974 17.0149 148.27 16.9205 148.454 16.7962C148.638 16.6719 148.73 16.4879 148.73 16.2443V16.1996C148.73 15.7273 148.581 15.3619 148.282 15.1033C147.989 14.8448 147.571 14.7156 147.029 14.7156C146.458 14.7156 146.003 14.8423 145.665 15.0959C145.327 15.3445 145.103 15.6577 144.994 16.0355L142.055 15.7969C142.205 15.1009 142.498 14.4993 142.935 13.9922C143.373 13.4801 143.937 13.0874 144.628 12.8139C145.324 12.5355 146.13 12.3963 147.044 12.3963C147.681 12.3963 148.29 12.4709 148.871 12.62C149.458 12.7692 149.978 13.0004 150.43 13.3136C150.887 13.6268 151.248 14.0295 151.511 14.5217C151.775 15.0089 151.907 15.593 151.907 16.2741V24H148.894V22.4116H148.804C148.62 22.7695 148.374 23.0852 148.066 23.3587C147.758 23.6271 147.387 23.8384 146.955 23.9925C146.522 24.1417 146.023 24.2163 145.456 24.2163ZM146.366 22.0238C146.833 22.0238 147.246 21.9318 147.604 21.7479C147.962 21.5589 148.243 21.3054 148.446 20.9872C148.65 20.669 148.752 20.3086 148.752 19.9059V18.6903C148.653 18.755 148.516 18.8146 148.342 18.8693C148.173 18.919 147.982 18.9663 147.768 19.011C147.554 19.0508 147.34 19.0881 147.126 19.1229C146.913 19.1527 146.719 19.18 146.545 19.2049C146.172 19.2596 145.846 19.3466 145.568 19.4659C145.289 19.5852 145.073 19.7468 144.919 19.9506C144.765 20.1495 144.688 20.3981 144.688 20.6964C144.688 21.1289 144.844 21.4595 145.158 21.6882C145.476 21.9119 145.879 22.0238 146.366 22.0238ZM159.547 24.2237C158.373 24.2237 157.364 23.9751 156.519 23.478C155.679 22.9759 155.032 22.2798 154.58 21.3899C154.133 20.5 153.909 19.4759 153.909 18.3175C153.909 17.1442 154.135 16.1151 154.588 15.2301C155.045 14.3402 155.694 13.6467 156.534 13.1495C157.374 12.6474 158.373 12.3963 159.532 12.3963C160.531 12.3963 161.406 12.5778 162.157 12.9407C162.907 13.3036 163.502 13.8132 163.939 14.4695C164.377 15.1257 164.618 15.8963 164.662 16.7812H161.665C161.58 16.2095 161.356 15.7496 160.993 15.4016C160.635 15.0487 160.166 14.8722 159.584 14.8722C159.092 14.8722 158.662 15.0064 158.294 15.2749C157.931 15.5384 157.648 15.9237 157.444 16.4308C157.24 16.9379 157.138 17.5518 157.138 18.2727C157.138 19.0036 157.237 19.625 157.436 20.1371C157.64 20.6491 157.926 21.0394 158.294 21.3079C158.662 21.5763 159.092 21.7106 159.584 21.7106C159.947 21.7106 160.273 21.636 160.561 21.4869C160.854 21.3377 161.095 21.1214 161.284 20.8381C161.478 20.5497 161.605 20.2042 161.665 19.8015H164.662C164.613 20.6765 164.374 21.4471 163.947 22.1133C163.524 22.7745 162.94 23.2915 162.194 23.6644C161.448 24.0373 160.566 24.2237 159.547 24.2237ZM172.789 12.5455V14.9318H165.891V12.5455H172.789ZM167.457 9.80114H170.634V20.4801C170.634 20.7734 170.679 21.0021 170.768 21.1662C170.858 21.3253 170.982 21.4371 171.141 21.5018C171.305 21.5664 171.494 21.5987 171.708 21.5987C171.857 21.5987 172.006 21.5863 172.155 21.5614C172.304 21.5316 172.419 21.5092 172.498 21.4943L172.998 23.8583C172.839 23.908 172.615 23.9652 172.327 24.0298C172.038 24.0994 171.688 24.1417 171.275 24.1566C170.51 24.1864 169.839 24.0845 169.262 23.8509C168.69 23.6172 168.245 23.2543 167.927 22.7621C167.609 22.2699 167.452 21.6484 167.457 20.8977V9.80114Z" fill="white"/>
<mask id="mask0_0_1" style="mask-type:alpha" maskUnits="userSpaceOnUse" x="190" y="0" width="33" height="33">
<rect x="190.5" y="0.5" width="32" height="32" fill="#D9D9D9"/>
</mask>
<g mask="url(#mask0_0_1)">
<path d="M215.829 19.1667C215.513 19.1667 215.25 19.0602 215.039 18.8473C214.828 18.6343 214.722 18.3704 214.722 18.0556V14.9445H211.611C211.296 14.9445 211.032 14.8376 210.819 14.6239C210.606 14.4102 210.5 14.1454 210.5 13.8295C210.5 13.5136 210.606 13.2501 210.819 13.0389C211.032 12.8278 211.296 12.7223 211.611 12.7223H214.722V9.61115C214.722 9.29635 214.829 9.03246 215.043 8.81948C215.256 8.60653 215.521 8.50005 215.837 8.50005C216.153 8.50005 216.417 8.60653 216.628 8.81948C216.839 9.03246 216.944 9.29635 216.944 9.61115V12.7223H220.055C220.37 12.7223 220.634 12.8291 220.847 13.0428C221.06 13.2566 221.167 13.5214 221.167 13.8373C221.167 14.1532 221.06 14.4167 220.847 14.6278C220.634 14.8389 220.37 14.9445 220.055 14.9445H216.944V18.0556C216.944 18.3704 216.837 18.6343 216.624 18.8473C216.41 19.0602 216.145 19.1667 215.829 19.1667ZM202.5 16.4778C201.033 16.4778 199.815 15.9926 198.844 15.0223C197.874 14.0519 197.389 12.8334 197.389 11.3667C197.389 9.90005 197.874 8.68154 198.844 7.71118C199.815 6.7408 201.033 6.25562 202.5 6.25562C203.967 6.25562 205.185 6.7408 206.155 7.71118C207.126 8.68154 207.611 9.90005 207.611 11.3667C207.611 12.8334 207.126 14.0519 206.155 15.0223C205.185 15.9926 203.967 16.4778 202.5 16.4778ZM192.944 27.1667C192.63 27.1667 192.366 27.0602 192.153 26.8473C191.94 26.6343 191.833 26.3704 191.833 26.0556V23.8334C191.833 23.063 192.031 22.3612 192.428 21.7279C192.824 21.0945 193.367 20.6186 194.055 20.3C195.626 19.5815 197.08 19.0649 198.419 18.75C199.757 18.4352 201.116 18.2779 202.496 18.2779C203.876 18.2779 205.237 18.4352 206.578 18.75C207.918 19.0649 209.367 19.5815 210.922 20.3C211.611 20.6334 212.157 21.113 212.561 21.7389C212.965 22.3649 213.167 23.063 213.167 23.8334V26.0556C213.167 26.3704 213.06 26.6343 212.847 26.8473C212.634 27.0602 212.37 27.1667 212.055 27.1667H192.944ZM194.055 24.9445H210.944V23.8334C210.944 23.5149 210.865 23.2149 210.705 22.9334C210.546 22.6519 210.307 22.4408 209.989 22.3C208.552 21.5963 207.263 21.1204 206.122 20.8723C204.981 20.6241 203.774 20.5 202.5 20.5C201.226 20.5 200.018 20.6278 198.878 20.8834C197.737 21.1389 196.441 21.6112 194.989 22.3C194.7 22.4408 194.472 22.6519 194.305 22.9334C194.139 23.2149 194.055 23.5149 194.055 23.8334V24.9445ZM202.5 14.2556C203.322 14.2556 204.009 13.9797 204.561 13.4278C205.113 12.876 205.389 12.1889 205.389 11.3667C205.389 10.5445 205.113 9.85746 204.561 9.30562C204.009 8.75375 203.322 8.47782 202.5 8.47782C201.678 8.47782 200.991 8.75375 200.439 9.30562C199.887 9.85746 199.611 10.5445 199.611 11.3667C199.611 12.1889 199.887 12.876 200.439 13.4278C200.991 13.9797 201.678 14.2556 202.5 14.2556Z" fill="white"/>
</g>
</svg>
