<svg width="181" height="25" viewBox="0 0 181 25" fill="none" xmlns="http://www.w3.org/2000/svg">
<path d="M13.8029 10.0742H10.5366C10.4769 9.65163 10.3551 9.27628 10.1712 8.94815C9.98722 8.61506 9.75107 8.33168 9.46271 8.09801C9.17436 7.86435 8.84126 7.68537 8.46342 7.56108C8.09055 7.43679 7.68537 7.37465 7.24787 7.37465C6.45739 7.37465 5.76882 7.57102 5.18217 7.96378C4.59553 8.35156 4.14063 8.91832 3.81747 9.66406C3.49432 10.4048 3.33274 11.3047 3.33274 12.3636C3.33274 13.4524 3.49432 14.3672 3.81747 15.108C4.1456 15.8487 4.60298 16.408 5.18963 16.7859C5.77628 17.1637 6.4549 17.3526 7.2255 17.3526C7.65803 17.3526 8.05824 17.2955 8.42614 17.1811C8.79901 17.0668 9.12962 16.9002 9.41797 16.6815C9.70632 16.4577 9.94496 16.1868 10.1339 15.8686C10.3278 15.5504 10.462 15.1875 10.5366 14.7798L13.8029 14.7947C13.7184 15.4957 13.5071 16.1719 13.169 16.8232C12.8359 17.4695 12.386 18.0487 11.8192 18.5607C11.2575 19.0678 10.5863 19.4705 9.80575 19.7688C9.03018 20.0621 8.1527 20.2088 7.1733 20.2088C5.81108 20.2088 4.59304 19.9006 3.51918 19.2841C2.45028 18.6676 1.60511 17.7752 0.983665 16.6069C0.367188 15.4386 0.0589489 14.0241 0.0589489 12.3636C0.0589489 10.6982 0.372159 9.28125 0.99858 8.11293C1.625 6.9446 2.47514 6.05469 3.54901 5.44318C4.62287 4.8267 5.83097 4.51847 7.1733 4.51847C8.05824 4.51847 8.87855 4.64276 9.63423 4.89133C10.3949 5.13991 11.0685 5.50284 11.6552 5.98011C12.2418 6.45241 12.7191 7.0316 13.087 7.71768C13.4599 8.40376 13.6985 9.18928 13.8029 10.0742ZM16.0588 20V8.54545H19.1387V10.544H19.258C19.4668 9.8331 19.8173 9.29616 20.3095 8.93324C20.8017 8.56534 21.3684 8.38139 22.0098 8.38139C22.1689 8.38139 22.3404 8.39133 22.5243 8.41122C22.7083 8.43111 22.8699 8.45845 23.0091 8.49325V11.3121C22.8599 11.2674 22.6536 11.2276 22.3901 11.1928C22.1266 11.158 21.8855 11.1406 21.6667 11.1406C21.1994 11.1406 20.7818 11.2425 20.4139 11.4464C20.051 11.6452 19.7626 11.9237 19.5488 12.2816C19.34 12.6396 19.2356 13.0522 19.2356 13.5195V20H16.0588ZM29.3385 20.2237C28.1602 20.2237 27.146 19.9851 26.2959 19.5078C25.4507 19.0256 24.7994 18.3445 24.3421 17.4645C23.8847 16.5795 23.656 15.533 23.656 14.3249C23.656 13.1467 23.8847 12.1126 24.3421 11.2227C24.7994 10.3327 25.4433 9.6392 26.2735 9.14204C27.1088 8.64489 28.0882 8.39631 29.2117 8.39631C29.9674 8.39631 30.6709 8.51811 31.3222 8.76172C31.9784 9.00035 32.5502 9.3608 33.0374 9.84304C33.5296 10.3253 33.9124 10.9318 34.1858 11.6626C34.4593 12.3885 34.596 13.2386 34.596 14.2131V15.0856H24.9237V13.1168H31.6056C31.6056 12.6594 31.5061 12.2543 31.3073 11.9013C31.1084 11.5483 30.8325 11.2724 30.4795 11.0735C30.1315 10.8697 29.7263 10.7678 29.2639 10.7678C28.7817 10.7678 28.3541 10.8796 27.9813 11.1033C27.6134 11.3221 27.325 11.6179 27.1162 11.9908C26.9074 12.3587 26.8005 12.7688 26.7955 13.2212V15.093C26.7955 15.6598 26.8999 16.1495 27.1088 16.5621C27.3225 16.9748 27.6233 17.293 28.0111 17.5167C28.3989 17.7404 28.8588 17.8523 29.3907 17.8523C29.7437 17.8523 30.0669 17.8026 30.3602 17.7031C30.6535 17.6037 30.9046 17.4545 31.1134 17.2557C31.3222 17.0568 31.4813 16.8132 31.5906 16.5249L34.5289 16.7188C34.3797 17.4247 34.074 18.0412 33.6116 18.5682C33.1542 19.0902 32.5626 19.4979 31.8367 19.7912C31.1159 20.0795 30.2831 20.2237 29.3385 20.2237ZM39.9355 20.2163C39.2046 20.2163 38.5534 20.0895 37.9816 19.8359C37.4099 19.5774 36.9575 19.1971 36.6244 18.695C36.2963 18.1879 36.1322 17.5565 36.1322 16.8008C36.1322 16.1644 36.249 15.63 36.4827 15.1974C36.7164 14.7649 37.0345 14.4169 37.4372 14.1534C37.8399 13.8899 38.2973 13.6911 38.8094 13.5568C39.3264 13.4226 39.8683 13.3281 40.4351 13.2734C41.1013 13.2038 41.6382 13.1392 42.0459 13.0795C42.4536 13.0149 42.7494 12.9205 42.9333 12.7962C43.1173 12.6719 43.2093 12.4879 43.2093 12.2443V12.1996C43.2093 11.7273 43.0601 11.3619 42.7618 11.1033C42.4685 10.8448 42.0509 10.7156 41.509 10.7156C40.9372 10.7156 40.4823 10.8423 40.1443 11.0959C39.8062 11.3445 39.5825 11.6577 39.4731 12.0355L36.5349 11.7969C36.684 11.1009 36.9774 10.4993 37.4149 9.99219C37.8524 9.48011 38.4166 9.08736 39.1077 8.81392C39.8037 8.53551 40.6091 8.39631 41.5239 8.39631C42.1602 8.39631 42.7693 8.47088 43.3509 8.62003C43.9376 8.76918 44.4571 9.00035 44.9095 9.31356C45.3669 9.62678 45.7274 10.0295 45.9909 10.5217C46.2544 11.0089 46.3861 11.593 46.3861 12.2741V20H43.3733V18.4116H43.2838C43.0999 18.7695 42.8538 19.0852 42.5455 19.3587C42.2373 19.6271 41.8669 19.8384 41.4344 19.9925C41.0019 20.1417 40.5022 20.2163 39.9355 20.2163ZM40.8453 18.0238C41.3126 18.0238 41.7252 17.9318 42.0832 17.7479C42.4411 17.5589 42.722 17.3054 42.9259 16.9872C43.1297 16.669 43.2316 16.3086 43.2316 15.9059V14.6903C43.1322 14.755 42.9955 14.8146 42.8215 14.8693C42.6524 14.919 42.461 14.9663 42.2472 15.011C42.0335 15.0508 41.8197 15.0881 41.6059 15.1229C41.3921 15.1527 41.1982 15.18 41.0242 15.2049C40.6514 15.2596 40.3257 15.3466 40.0473 15.4659C39.7689 15.5852 39.5526 15.7468 39.3985 15.9506C39.2444 16.1495 39.1673 16.3981 39.1673 16.6964C39.1673 17.1289 39.324 17.4595 39.6372 17.6882C39.9553 17.9119 40.358 18.0238 40.8453 18.0238ZM54.9434 8.54545V10.9318H48.0454V8.54545H54.9434ZM49.6114 5.80114H52.7883V16.4801C52.7883 16.7734 52.833 17.0021 52.9225 17.1662C53.012 17.3253 53.1363 17.4371 53.2954 17.5018C53.4594 17.5664 53.6483 17.5987 53.8621 17.5987C54.0113 17.5987 54.1604 17.5863 54.3096 17.5614C54.4587 17.5316 54.5731 17.5092 54.6526 17.4943L55.1523 19.8583C54.9932 19.908 54.7694 19.9652 54.4811 20.0298C54.1927 20.0994 53.8422 20.1417 53.4296 20.1566C52.664 20.1864 51.9928 20.0845 51.4161 19.8509C50.8444 19.6172 50.3994 19.2543 50.0812 18.7621C49.7631 18.2699 49.6064 17.6484 49.6114 16.8977V5.80114ZM62.11 20.2237C60.9317 20.2237 59.9175 19.9851 59.0674 19.5078C58.2222 19.0256 57.5709 18.3445 57.1135 17.4645C56.6562 16.5795 56.4275 15.533 56.4275 14.3249C56.4275 13.1467 56.6562 12.1126 57.1135 11.2227C57.5709 10.3327 58.2148 9.6392 59.045 9.14204C59.8802 8.64489 60.8596 8.39631 61.9832 8.39631C62.7389 8.39631 63.4424 8.51811 64.0937 8.76172C64.7499 9.00035 65.3216 9.3608 65.8089 9.84304C66.301 10.3253 66.6839 10.9318 66.9573 11.6626C67.2307 12.3885 67.3675 13.2386 67.3675 14.2131V15.0856H57.6952V13.1168H64.377C64.377 12.6594 64.2776 12.2543 64.0787 11.9013C63.8799 11.5483 63.604 11.2724 63.251 11.0735C62.903 10.8697 62.4978 10.7678 62.0354 10.7678C61.5532 10.7678 61.1256 10.8796 60.7528 11.1033C60.3849 11.3221 60.0965 11.6179 59.8877 11.9908C59.6789 12.3587 59.572 12.7688 59.567 13.2212V15.093C59.567 15.6598 59.6714 16.1495 59.8802 16.5621C60.094 16.9748 60.3948 17.293 60.7826 17.5167C61.1704 17.7404 61.6302 17.8523 62.1622 17.8523C62.5152 17.8523 62.8383 17.8026 63.1317 17.7031C63.425 17.6037 63.676 17.4545 63.8849 17.2557C64.0937 17.0568 64.2528 16.8132 64.3621 16.5249L67.3003 16.7188C67.1512 17.4247 66.8454 18.0412 66.3831 18.5682C65.9257 19.0902 65.3341 19.4979 64.6082 19.7912C63.8873 20.0795 63.0546 20.2237 62.11 20.2237ZM79.4764 20.2237C78.3031 20.2237 77.2939 19.9751 76.4487 19.478C75.6085 18.9759 74.9622 18.2798 74.5098 17.3899C74.0623 16.5 73.8386 15.4759 73.8386 14.3175C73.8386 13.1442 74.0648 12.1151 74.5172 11.2301C74.9746 10.3402 75.6234 9.64666 76.4636 9.1495C77.3038 8.64737 78.3031 8.39631 79.4615 8.39631C80.4608 8.39631 81.3358 8.57777 82.0865 8.9407C82.8372 9.30362 83.4313 9.81321 83.8688 10.4695C84.3063 11.1257 84.5474 11.8963 84.5922 12.7812H81.5943C81.5098 12.2095 81.286 11.7496 80.9231 11.4016C80.5652 11.0487 80.0953 10.8722 79.5137 10.8722C79.0215 10.8722 78.5914 11.0064 78.2235 11.2749C77.8606 11.5384 77.5772 11.9237 77.3734 12.4308C77.1696 12.9379 77.0676 13.5518 77.0676 14.2727C77.0676 15.0036 77.1671 15.625 77.3659 16.1371C77.5698 16.6491 77.8556 17.0394 78.2235 17.3079C78.5914 17.5763 79.0215 17.7106 79.5137 17.7106C79.8766 17.7106 80.2022 17.636 80.4906 17.4869C80.7839 17.3377 81.025 17.1214 81.214 16.8381C81.4078 16.5497 81.5346 16.2042 81.5943 15.8015H84.5922C84.5424 16.6765 84.3038 17.4471 83.8762 18.1133C83.4537 18.7745 82.8695 19.2915 82.1238 19.6644C81.378 20.0373 80.4956 20.2237 79.4764 20.2237ZM91.8016 20.2237C90.6432 20.2237 89.6414 19.9776 88.7963 19.4854C87.9561 18.9883 87.3073 18.2972 86.8499 17.4123C86.3925 16.5224 86.1638 15.4908 86.1638 14.3175C86.1638 13.1342 86.3925 12.1001 86.8499 11.2152C87.3073 10.3253 87.9561 9.63423 88.7963 9.14204C89.6414 8.64489 90.6432 8.39631 91.8016 8.39631C92.96 8.39631 93.9593 8.64489 94.7994 9.14204C95.6446 9.63423 96.2959 10.3253 96.7533 11.2152C97.2107 12.1001 97.4394 13.1342 97.4394 14.3175C97.4394 15.4908 97.2107 16.5224 96.7533 17.4123C96.2959 18.2972 95.6446 18.9883 94.7994 19.4854C93.9593 19.9776 92.96 20.2237 91.8016 20.2237ZM91.8165 17.7628C92.3435 17.7628 92.7835 17.6136 93.1365 17.3153C93.4894 17.0121 93.7554 16.5994 93.9344 16.0774C94.1183 15.5554 94.2103 14.9613 94.2103 14.2951C94.2103 13.6289 94.1183 13.0348 93.9344 12.5128C93.7554 11.9908 93.4894 11.5781 93.1365 11.2749C92.7835 10.9716 92.3435 10.82 91.8165 10.82C91.2845 10.82 90.8371 10.9716 90.4742 11.2749C90.1162 11.5781 89.8453 11.9908 89.6613 12.5128C89.4823 13.0348 89.3928 13.6289 89.3928 14.2951C89.3928 14.9613 89.4823 15.5554 89.6613 16.0774C89.8453 16.5994 90.1162 17.0121 90.4742 17.3153C90.8371 17.6136 91.2845 17.7628 91.8165 17.7628ZM102.682 13.3778V20H99.5051V8.54545H102.533V10.5664H102.667C102.921 9.90021 103.346 9.37322 103.942 8.98544C104.539 8.59268 105.262 8.39631 106.112 8.39631C106.908 8.39631 107.601 8.57031 108.193 8.91832C108.785 9.26633 109.244 9.76349 109.573 10.4098C109.901 11.0511 110.065 11.8168 110.065 12.7067V20H106.888V13.2734C106.893 12.5724 106.714 12.0256 106.351 11.6328C105.988 11.2351 105.488 11.0362 104.852 11.0362C104.424 11.0362 104.047 11.1282 103.718 11.3121C103.395 11.4961 103.142 11.7646 102.958 12.1175C102.779 12.4656 102.687 12.8857 102.682 13.3778ZM118.661 8.54545V10.9318H111.763V8.54545H118.661ZM113.329 5.80114H116.506V16.4801C116.506 16.7734 116.551 17.0021 116.64 17.1662C116.73 17.3253 116.854 17.4371 117.013 17.5018C117.177 17.5664 117.366 17.5987 117.58 17.5987C117.729 17.5987 117.878 17.5863 118.027 17.5614C118.176 17.5316 118.291 17.5092 118.37 17.4943L118.87 19.8583C118.711 19.908 118.487 19.9652 118.199 20.0298C117.911 20.0994 117.56 20.1417 117.147 20.1566C116.382 20.1864 115.711 20.0845 115.134 19.8509C114.562 19.6172 114.117 19.2543 113.799 18.7621C113.481 18.2699 113.324 17.6484 113.329 16.8977V5.80114ZM123.997 20.2163C123.266 20.2163 122.615 20.0895 122.043 19.8359C121.471 19.5774 121.019 19.1971 120.686 18.695C120.358 18.1879 120.194 17.5565 120.194 16.8008C120.194 16.1644 120.311 15.63 120.544 15.1974C120.778 14.7649 121.096 14.4169 121.499 14.1534C121.901 13.8899 122.359 13.6911 122.871 13.5568C123.388 13.4226 123.93 13.3281 124.497 13.2734C125.163 13.2038 125.7 13.1392 126.107 13.0795C126.515 13.0149 126.811 12.9205 126.995 12.7962C127.179 12.6719 127.271 12.4879 127.271 12.2443V12.1996C127.271 11.7273 127.122 11.3619 126.823 11.1033C126.53 10.8448 126.112 10.7156 125.57 10.7156C124.999 10.7156 124.544 10.8423 124.206 11.0959C123.868 11.3445 123.644 11.6577 123.535 12.0355L120.596 11.7969C120.746 11.1009 121.039 10.4993 121.476 9.99219C121.914 9.48011 122.478 9.08736 123.169 8.81392C123.865 8.53551 124.671 8.39631 125.585 8.39631C126.222 8.39631 126.831 8.47088 127.412 8.62003C127.999 8.76918 128.519 9.00035 128.971 9.31356C129.428 9.62678 129.789 10.0295 130.052 10.5217C130.316 11.0089 130.448 11.593 130.448 12.2741V20H127.435V18.4116H127.345C127.161 18.7695 126.915 19.0852 126.607 19.3587C126.299 19.6271 125.928 19.8384 125.496 19.9925C125.063 20.1417 124.564 20.2163 123.997 20.2163ZM124.907 18.0238C125.374 18.0238 125.787 17.9318 126.145 17.7479C126.503 17.5589 126.784 17.3054 126.987 16.9872C127.191 16.669 127.293 16.3086 127.293 15.9059V14.6903C127.194 14.755 127.057 14.8146 126.883 14.8693C126.714 14.919 126.523 14.9663 126.309 15.011C126.095 15.0508 125.881 15.0881 125.667 15.1229C125.454 15.1527 125.26 15.18 125.086 15.2049C124.713 15.2596 124.387 15.3466 124.109 15.4659C123.83 15.5852 123.614 15.7468 123.46 15.9506C123.306 16.1495 123.229 16.3981 123.229 16.6964C123.229 17.1289 123.385 17.4595 123.699 17.6882C124.017 17.9119 124.42 18.0238 124.907 18.0238ZM138.088 20.2237C136.914 20.2237 135.905 19.9751 135.06 19.478C134.22 18.9759 133.574 18.2798 133.121 17.3899C132.674 16.5 132.45 15.4759 132.45 14.3175C132.45 13.1442 132.676 12.1151 133.129 11.2301C133.586 10.3402 134.235 9.64666 135.075 9.1495C135.915 8.64737 136.914 8.39631 138.073 8.39631C139.072 8.39631 139.947 8.57777 140.698 8.9407C141.449 9.30362 142.043 9.81321 142.48 10.4695C142.918 11.1257 143.159 11.8963 143.203 12.7812H140.206C140.121 12.2095 139.897 11.7496 139.534 11.4016C139.176 11.0487 138.707 10.8722 138.125 10.8722C137.633 10.8722 137.203 11.0064 136.835 11.2749C136.472 11.5384 136.189 11.9237 135.985 12.4308C135.781 12.9379 135.679 13.5518 135.679 14.2727C135.679 15.0036 135.778 15.625 135.977 16.1371C136.181 16.6491 136.467 17.0394 136.835 17.3079C137.203 17.5763 137.633 17.7106 138.125 17.7106C138.488 17.7106 138.814 17.636 139.102 17.4869C139.395 17.3377 139.636 17.1214 139.825 16.8381C140.019 16.5497 140.146 16.2042 140.206 15.8015H143.203C143.154 16.6765 142.915 17.4471 142.488 18.1133C142.065 18.7745 141.481 19.2915 140.735 19.6644C139.989 20.0373 139.107 20.2237 138.088 20.2237ZM151.33 8.54545V10.9318H144.432V8.54545H151.33ZM145.998 5.80114H149.175V16.4801C149.175 16.7734 149.22 17.0021 149.309 17.1662C149.399 17.3253 149.523 17.4371 149.682 17.5018C149.846 17.5664 150.035 17.5987 150.249 17.5987C150.398 17.5987 150.547 17.5863 150.696 17.5614C150.845 17.5316 150.96 17.5092 151.039 17.4943L151.539 19.8583C151.38 19.908 151.156 19.9652 150.868 20.0298C150.579 20.0994 150.229 20.1417 149.816 20.1566C149.051 20.1864 148.38 20.0845 147.803 19.8509C147.231 19.6172 146.786 19.2543 146.468 18.7621C146.15 18.2699 145.993 17.6484 145.998 16.8977V5.80114Z" fill="white"/>
<mask id="mask0_0_1" style="mask-type:alpha" maskUnits="userSpaceOnUse" x="157" y="0" width="24" height="25">
<rect x="157" y="0.5" width="24" height="24" fill="#D9D9D9"/>
</mask>
<g mask="url(#mask0_0_1)">
<path d="M166.551 15.65L175.026 7.175C175.226 6.975 175.463 6.875 175.738 6.875C176.013 6.875 176.251 6.975 176.451 7.175C176.651 7.375 176.751 7.6125 176.751 7.8875C176.751 8.1625 176.651 8.4 176.451 8.6L167.251 17.8C167.051 18 166.817 18.1 166.551 18.1C166.284 18.1 166.051 18 165.851 17.8L161.551 13.5C161.351 13.3 161.255 13.0625 161.263 12.7875C161.271 12.5125 161.376 12.275 161.576 12.075C161.776 11.875 162.013 11.775 162.288 11.775C162.563 11.775 162.801 11.875 163.001 12.075L166.551 15.65Z" fill="white"/>
</g>
</svg>
