<svg width="24" height="24" viewBox="0 0 24 24" fill="none" xmlns="http://www.w3.org/2000/svg">
<mask id="mask0_162298_2380" style="mask-type:alpha" maskUnits="userSpaceOnUse" x="0" y="0" width="25" height="24">
<rect x="0.000976562" width="24" height="24" fill="#D9D9D9"/>
</mask>
<g mask="url(#mask0_162298_2380)">
<path d="M11.301 14.3L8.70095 11.7C8.38429 11.3833 8.31345 11.0208 8.48845 10.6125C8.66345 10.2042 8.97595 10 9.42595 10H14.576C15.026 10 15.3385 10.2042 15.5135 10.6125C15.6885 11.0208 15.6176 11.3833 15.301 11.7L12.701 14.3C12.601 14.4 12.4926 14.475 12.376 14.525C12.2593 14.575 12.1343 14.6 12.001 14.6C11.8676 14.6 11.7426 14.575 11.626 14.525C11.5093 14.475 11.401 14.4 11.301 14.3Z" fill="#2A3647"/>
</g>
</svg>
