<svg width="24" height="24" viewBox="0 0 24 24" fill="none" xmlns="http://www.w3.org/2000/svg">
<mask id="mask0_162298_8057" style="mask-type:alpha" maskUnits="userSpaceOnUse" x="0" y="0" width="25" height="24">
<rect x="0.000976562" width="24" height="24" fill="#D9D9D9"/>
</mask>
<g mask="url(#mask0_162298_8057)">
<path d="M12.701 10.3001L15.301 12.9001C15.6177 13.2168 15.6885 13.5793 15.5135 13.9876C15.3385 14.3959 15.026 14.6001 14.576 14.6001H9.426C8.976 14.6001 8.6635 14.3959 8.4885 13.9876C8.3135 13.5793 8.38434 13.2168 8.701 12.9001L11.301 10.3001C11.401 10.2001 11.5093 10.1251 11.626 10.0751C11.7427 10.0251 11.8677 10.0001 12.001 10.0001C12.1343 10.0001 12.2593 10.0251 12.376 10.0751C12.4927 10.1251 12.601 10.2001 12.701 10.3001Z" fill="#2A3647"/>
</g>
</svg>
