<svg width="93" height="25" viewBox="0 0 93 25" fill="none" xmlns="http://www.w3.org/2000/svg">
<path d="M12.4659 9.5H10.7045C10.6004 8.99337 10.4181 8.5483 10.1577 8.16477C9.90199 7.78125 9.58949 7.45928 9.22017 7.19886C8.85559 6.93371 8.45076 6.73485 8.00568 6.60227C7.56061 6.4697 7.09659 6.40341 6.61364 6.40341C5.73295 6.40341 4.93513 6.62595 4.22017 7.07102C3.50994 7.5161 2.94413 8.17188 2.52273 9.03835C2.10606 9.90483 1.89773 10.9678 1.89773 12.2273C1.89773 13.4867 2.10606 14.5497 2.52273 15.4162C2.94413 16.2827 3.50994 16.9384 4.22017 17.3835C4.93513 17.8286 5.73295 18.0511 6.61364 18.0511C7.09659 18.0511 7.56061 17.9848 8.00568 17.8523C8.45076 17.7197 8.85559 17.5232 9.22017 17.2628C9.58949 16.9976 9.90199 16.6733 10.1577 16.2898C10.4181 15.9015 10.6004 15.4564 10.7045 14.9545H12.4659C12.3333 15.6979 12.0919 16.3632 11.7415 16.9503C11.3911 17.5374 10.9555 18.0369 10.4347 18.4489C9.91383 18.8561 9.32907 19.1662 8.6804 19.3793C8.03646 19.5923 7.34754 19.6989 6.61364 19.6989C5.37311 19.6989 4.26989 19.3958 3.30398 18.7898C2.33807 18.1837 1.57813 17.322 1.02415 16.2045C0.470171 15.0871 0.193182 13.7614 0.193182 12.2273C0.193182 10.6932 0.470171 9.36742 1.02415 8.25C1.57813 7.13258 2.33807 6.27083 3.30398 5.66477C4.26989 5.05871 5.37311 4.75568 6.61364 4.75568C7.34754 4.75568 8.03646 4.86222 8.6804 5.07528C9.32907 5.28835 9.91383 5.60085 10.4347 6.01278C10.9555 6.41998 11.3911 6.91714 11.7415 7.50426C12.0919 8.08665 12.3333 8.75189 12.4659 9.5ZM18.2951 19.7557C17.6038 19.7557 16.9764 19.6255 16.413 19.3651C15.8496 19.0999 15.4021 18.7188 15.0707 18.2216C14.7392 17.7197 14.5735 17.1136 14.5735 16.4034C14.5735 15.7784 14.6966 15.2718 14.9428 14.8835C15.189 14.4905 15.5181 14.1828 15.93 13.9602C16.342 13.7377 16.7965 13.572 17.2937 13.4631C17.7956 13.3494 18.2998 13.2595 18.8065 13.1932C19.4693 13.108 20.0067 13.044 20.4187 13.0014C20.8353 12.9541 21.1384 12.8759 21.3278 12.767C21.5219 12.6581 21.619 12.4687 21.619 12.1989V12.142C21.619 11.4413 21.4272 10.8968 21.0437 10.5085C20.6649 10.1203 20.0896 9.92614 19.3178 9.92614C18.5176 9.92614 17.8903 10.1013 17.4357 10.4517C16.9812 10.8021 16.6616 11.1761 16.4769 11.5739L14.886 11.0057C15.1701 10.3428 15.5489 9.8267 16.0224 9.45739C16.5006 9.08333 17.0214 8.82292 17.5849 8.67614C18.1531 8.52462 18.7118 8.44886 19.261 8.44886C19.6114 8.44886 20.0138 8.49148 20.4684 8.5767C20.9277 8.6572 21.3704 8.82528 21.7965 9.08097C22.2274 9.33665 22.5849 9.72254 22.869 10.2386C23.1531 10.7547 23.2951 11.446 23.2951 12.3125V19.5H21.619V18.0227H21.5337C21.4201 18.2595 21.2307 18.5128 20.9656 18.7827C20.7004 19.0526 20.3477 19.2822 19.9073 19.4716C19.467 19.661 18.9296 19.7557 18.2951 19.7557ZM18.5508 18.25C19.2137 18.25 19.7724 18.1198 20.2269 17.8594C20.6862 17.599 21.0318 17.2628 21.2638 16.8509C21.5006 16.4389 21.619 16.0057 21.619 15.5511V14.017C21.5479 14.1023 21.3917 14.1804 21.1502 14.2514C20.9135 14.3177 20.6388 14.3769 20.3263 14.429C20.0186 14.4763 19.7179 14.5189 19.4244 14.5568C19.1355 14.59 18.9012 14.6184 18.7212 14.642C18.2856 14.6989 17.8784 14.7912 17.4996 14.919C17.1256 15.0421 16.8226 15.2292 16.5906 15.4801C16.3633 15.7263 16.2496 16.0625 16.2496 16.4886C16.2496 17.071 16.4651 17.5114 16.896 17.8097C17.3316 18.1032 17.8832 18.25 18.5508 18.25ZM28.0305 12.9375V19.5H26.3544V8.59091H27.9737V10.2955H28.1158C28.3714 9.74148 28.7597 9.2964 29.2805 8.96023C29.8014 8.61932 30.4737 8.44886 31.2976 8.44886C32.0362 8.44886 32.6825 8.60038 33.2365 8.90341C33.7905 9.2017 34.2214 9.65625 34.5291 10.267C34.8369 10.8731 34.9908 11.6402 34.9908 12.5682V19.5H33.3146V12.6818C33.3146 11.8248 33.0921 11.1572 32.647 10.679C32.2019 10.196 31.5911 9.95455 30.8146 9.95455C30.2796 9.95455 29.8014 10.0705 29.38 10.3026C28.9633 10.5346 28.6342 10.8731 28.3928 11.3182C28.1513 11.7633 28.0305 12.303 28.0305 12.9375ZM42.4854 19.7273C41.4627 19.7273 40.582 19.4858 39.8434 19.0028C39.1048 18.5199 38.5366 17.8546 38.1388 17.0071C37.7411 16.1596 37.5423 15.1913 37.5423 14.1023C37.5423 12.9943 37.7459 12.0166 38.1531 11.169C38.565 10.3168 39.1379 9.65152 39.8718 9.1733C40.6104 8.69034 41.4722 8.44886 42.457 8.44886C43.2241 8.44886 43.9154 8.59091 44.5309 8.875C45.1464 9.15909 45.6507 9.55682 46.0437 10.0682C46.4367 10.5795 46.6805 11.1761 46.7752 11.858H45.0991C44.9712 11.3608 44.6871 10.9205 44.2468 10.5369C43.8112 10.1487 43.2241 9.95455 42.4854 9.95455C41.832 9.95455 41.2591 10.125 40.7667 10.4659C40.279 10.8021 39.8978 11.2779 39.6232 11.8935C39.3533 12.5043 39.2184 13.2216 39.2184 14.0455C39.2184 14.8883 39.351 15.6222 39.6161 16.2472C39.886 16.8722 40.2648 17.3575 40.7525 17.7031C41.2449 18.0488 41.8226 18.2216 42.4854 18.2216C42.921 18.2216 43.3164 18.1458 43.6715 17.9943C44.0266 17.8428 44.3273 17.625 44.5735 17.3409C44.8197 17.0568 44.9949 16.7159 45.0991 16.3182H46.7752C46.6805 16.9621 46.4461 17.5421 46.0721 18.0582C45.7028 18.5696 45.2127 18.9768 44.6019 19.2798C43.9959 19.5781 43.2904 19.7273 42.4854 19.7273ZM53.7994 19.7273C52.7482 19.7273 51.8415 19.4953 51.0792 19.0312C50.3216 18.5625 49.7369 17.9091 49.3249 17.071C48.9177 16.2282 48.7141 15.2481 48.7141 14.1307C48.7141 13.0133 48.9177 12.0284 49.3249 11.1761C49.7369 10.3191 50.3098 9.65152 51.0437 9.1733C51.7823 8.69034 52.6441 8.44886 53.6289 8.44886C54.1971 8.44886 54.7582 8.54356 55.3121 8.73295C55.8661 8.92235 56.3704 9.23011 56.8249 9.65625C57.2795 10.0777 57.6417 10.6364 57.9116 11.3324C58.1815 12.0284 58.3164 12.8854 58.3164 13.9034V14.6136H49.9073V13.1648H56.6119C56.6119 12.5492 56.4888 12 56.2425 11.517C56.0011 11.0341 55.6554 10.6529 55.2056 10.3736C54.7605 10.0942 54.235 9.95455 53.6289 9.95455C52.9613 9.95455 52.3836 10.1203 51.896 10.4517C51.413 10.7784 51.0413 11.2045 50.7809 11.7301C50.5205 12.2557 50.3903 12.8191 50.3903 13.4205V14.3864C50.3903 15.2102 50.5323 15.9086 50.8164 16.4815C51.1052 17.0497 51.5053 17.483 52.0167 17.7812C52.5281 18.0748 53.1223 18.2216 53.7994 18.2216C54.2397 18.2216 54.6374 18.16 54.9925 18.0369C55.3524 17.9091 55.6625 17.7197 55.9229 17.4688C56.1834 17.2131 56.3846 16.8958 56.5266 16.517L58.146 16.9716C57.9755 17.5208 57.689 18.0038 57.2866 18.4205C56.8841 18.8324 56.387 19.1544 55.7951 19.3864C55.2032 19.6136 54.538 19.7273 53.7994 19.7273ZM62.5423 4.95455V19.5H60.8661V4.95455H62.5423Z" fill="#2A3647"/>
<path d="M81.001 12.5001L86.244 17.7431M75.758 17.7431L81.001 12.5001L75.758 17.7431ZM86.244 7.25708L81 12.5001L86.244 7.25708ZM81 12.5001L75.758 7.25708L81 12.5001Z" stroke="#2A3647" stroke-width="2" stroke-linecap="round" stroke-linejoin="round"/>
</svg>
