<svg width="78" height="24" viewBox="0 0 78 24" fill="none" xmlns="http://www.w3.org/2000/svg">
<path d="M12.7144 9H10.9531C10.8489 8.49337 10.6666 8.0483 10.4062 7.66477C10.1505 7.28125 9.83802 6.95928 9.46871 6.69886C9.10412 6.43371 8.69929 6.23485 8.25422 6.10227C7.80914 5.9697 7.34513 5.90341 6.86217 5.90341C5.98149 5.90341 5.18367 6.12595 4.46871 6.57102C3.75848 7.0161 3.19266 7.67188 2.77126 8.53835C2.3546 9.40483 2.14626 10.4678 2.14626 11.7273C2.14626 12.9867 2.3546 14.0497 2.77126 14.9162C3.19266 15.7827 3.75848 16.4384 4.46871 16.8835C5.18367 17.3286 5.98149 17.5511 6.86217 17.5511C7.34513 17.5511 7.80914 17.4848 8.25422 17.3523C8.69929 17.2197 9.10412 17.0232 9.46871 16.7628C9.83802 16.4976 10.1505 16.1733 10.4062 15.7898C10.6666 15.4015 10.8489 14.9564 10.9531 14.4545H12.7144C12.5819 15.1979 12.3404 15.8632 11.99 16.4503C11.6396 17.0374 11.204 17.5369 10.6832 17.9489C10.1624 18.3561 9.57761 18.6662 8.92893 18.8793C8.28499 19.0923 7.59607 19.1989 6.86217 19.1989C5.62164 19.1989 4.51842 18.8958 3.55251 18.2898C2.5866 17.6837 1.82666 16.822 1.27268 15.7045C0.718706 14.5871 0.441717 13.2614 0.441717 11.7273C0.441717 10.1932 0.718706 8.86742 1.27268 7.75C1.82666 6.63258 2.5866 5.77083 3.55251 5.16477C4.51842 4.55871 5.62164 4.25568 6.86217 4.25568C7.59607 4.25568 8.28499 4.36222 8.92893 4.57528C9.57761 4.78835 10.1624 5.10085 10.6832 5.51278C11.204 5.91998 11.6396 6.41714 11.99 7.00426C12.3404 7.58665 12.5819 8.25189 12.7144 9ZM17.0095 4.45455V19H15.3334V4.45455H17.0095ZM24.6534 19.2273C23.6022 19.2273 22.6955 18.9953 21.9332 18.5312C21.1756 18.0625 20.5909 17.4091 20.1789 16.571C19.7717 15.7282 19.5681 14.7481 19.5681 13.6307C19.5681 12.5133 19.7717 11.5284 20.1789 10.6761C20.5909 9.81913 21.1638 9.15152 21.8977 8.6733C22.6363 8.19034 23.4981 7.94886 24.4829 7.94886C25.0511 7.94886 25.6122 8.04356 26.1661 8.23295C26.7201 8.42235 27.2244 8.73011 27.6789 9.15625C28.1335 9.57765 28.4957 10.1364 28.7656 10.8324C29.0355 11.5284 29.1704 12.3854 29.1704 13.4034V14.1136H20.7613V12.6648H27.4659C27.4659 12.0492 27.3428 11.5 27.0965 11.017C26.8551 10.5341 26.5094 10.1529 26.0596 9.87358C25.6145 9.59422 25.089 9.45455 24.4829 9.45455C23.8153 9.45455 23.2376 9.62026 22.75 9.9517C22.267 10.2784 21.8953 10.7045 21.6349 11.2301C21.3745 11.7557 21.2443 12.3191 21.2443 12.9205V13.8864C21.2443 14.7102 21.3863 15.4086 21.6704 15.9815C21.9592 16.5497 22.3593 16.983 22.8707 17.2812C23.3821 17.5748 23.9763 17.7216 24.6534 17.7216C25.0937 17.7216 25.4914 17.66 25.8465 17.5369C26.2064 17.4091 26.5165 17.2197 26.7769 16.9688C27.0374 16.7131 27.2386 16.3958 27.3806 16.017L29 16.4716C28.8295 17.0208 28.543 17.5038 28.1406 17.9205C27.7381 18.3324 27.241 18.6544 26.6491 18.8864C26.0572 19.1136 25.392 19.2273 24.6534 19.2273ZM34.9304 19.2557C34.2391 19.2557 33.6117 19.1255 33.0483 18.8651C32.4848 18.5999 32.0374 18.2188 31.7059 17.7216C31.3745 17.2197 31.2088 16.6136 31.2088 15.9034C31.2088 15.2784 31.3319 14.7718 31.5781 14.3835C31.8243 13.9905 32.1534 13.6828 32.5653 13.4602C32.9772 13.2377 33.4318 13.072 33.9289 12.9631C34.4308 12.8494 34.9351 12.7595 35.4417 12.6932C36.1046 12.608 36.642 12.544 37.0539 12.5014C37.4706 12.4541 37.7736 12.3759 37.963 12.267C38.1572 12.1581 38.2542 11.9687 38.2542 11.6989V11.642C38.2542 10.9413 38.0625 10.3968 37.6789 10.0085C37.3001 9.62027 36.7249 9.42614 35.9531 9.42614C35.1529 9.42614 34.5255 9.60133 34.071 9.9517C33.6164 10.3021 33.2968 10.6761 33.1122 11.0739L31.5213 10.5057C31.8054 9.8428 32.1841 9.3267 32.6576 8.95739C33.1358 8.58333 33.6567 8.32292 34.2201 8.17614C34.7883 8.02462 35.347 7.94886 35.8963 7.94886C36.2466 7.94886 36.6491 7.99148 37.1036 8.0767C37.5629 8.1572 38.0056 8.32528 38.4318 8.58097C38.8626 8.83665 39.2201 9.22254 39.5042 9.73864C39.7883 10.2547 39.9304 10.946 39.9304 11.8125V19H38.2542V17.5227H38.169C38.0554 17.7595 37.866 18.0128 37.6008 18.2827C37.3357 18.5526 36.9829 18.7822 36.5426 18.9716C36.1022 19.161 35.5648 19.2557 34.9304 19.2557ZM35.186 17.75C35.8489 17.75 36.4076 17.6198 36.8622 17.3594C37.3215 17.099 37.6671 16.7628 37.8991 16.3509C38.1358 15.9389 38.2542 15.5057 38.2542 15.0511V13.517C38.1832 13.6023 38.0269 13.6804 37.7855 13.7514C37.5487 13.8177 37.2741 13.8769 36.9616 13.929C36.6538 13.9763 36.3532 14.0189 36.0596 14.0568C35.7708 14.09 35.5364 14.1184 35.3565 14.142C34.9209 14.1989 34.5137 14.2912 34.1349 14.419C33.7608 14.5421 33.4578 14.7292 33.2258 14.9801C32.9985 15.2263 32.8849 15.5625 32.8849 15.9886C32.8849 16.571 33.1003 17.0114 33.5312 17.3097C33.9668 17.6032 34.5184 17.75 35.186 17.75ZM42.9897 19V8.09091H44.609V9.73864H44.7226C44.9215 9.19886 45.2813 8.76089 45.8022 8.42472C46.323 8.08854 46.9101 7.92045 47.5635 7.92045C47.6866 7.92045 47.8405 7.92282 48.0252 7.92756C48.2098 7.93229 48.3495 7.93939 48.4442 7.94886V9.65341C48.3874 9.6392 48.2572 9.6179 48.0536 9.58949C47.8547 9.55634 47.644 9.53977 47.4215 9.53977C46.8912 9.53977 46.4177 9.65104 46.001 9.87358C45.5891 10.0914 45.2624 10.3944 45.0209 10.7827C44.7842 11.1662 44.6658 11.6042 44.6658 12.0966V19H42.9897Z" fill="#2A3647"/>
<path d="M65.2496 11.9998L70.4926 17.2428M60.0066 17.2428L65.2496 11.9998L60.0066 17.2428ZM70.4926 6.75684L65.2486 11.9998L70.4926 6.75684ZM65.2486 11.9998L60.0066 6.75684L65.2486 11.9998Z" stroke="#2A3647" stroke-width="2" stroke-linecap="round" stroke-linejoin="round"/>
</svg>
