<svg width="78" height="25" viewBox="0 0 78 25" fill="none" xmlns="http://www.w3.org/2000/svg">
<path d="M9.10329 9.11967C9.04363 8.51811 8.7876 8.05078 8.33518 7.71768C7.88277 7.38459 7.26878 7.21804 6.49321 7.21804C5.96622 7.21804 5.52126 7.29261 5.15834 7.44176C4.79541 7.58594 4.517 7.78729 4.32311 8.04581C4.13419 8.30433 4.03973 8.59766 4.03973 8.92578C4.02979 9.19922 4.08696 9.43786 4.21125 9.64169C4.34051 9.84553 4.517 10.022 4.74072 10.1712C4.96444 10.3153 5.22297 10.4421 5.51629 10.5515C5.80961 10.6559 6.12283 10.7454 6.45592 10.82L7.82808 11.1481C8.49427 11.2972 9.10578 11.4961 9.6626 11.7447C10.2194 11.9933 10.7017 12.299 11.1093 12.6619C11.517 13.0249 11.8327 13.4524 12.0564 13.9446C12.2851 14.4368 12.4019 15.0011 12.4069 15.6374C12.4019 16.5721 12.1633 17.3825 11.691 18.0685C11.2237 18.7496 10.5475 19.2791 9.6626 19.657C8.78263 20.0298 7.72119 20.2163 6.47829 20.2163C5.24534 20.2163 4.17148 20.0273 3.2567 19.6495C2.3469 19.2717 1.63596 18.7124 1.12389 17.9716C0.616788 17.2259 0.350808 16.3036 0.32595 15.2049H3.45059C3.4854 15.717 3.63206 16.1445 3.89058 16.4876C4.15408 16.8256 4.50457 17.0817 4.94207 17.2557C5.38454 17.4247 5.88419 17.5092 6.44101 17.5092C6.98788 17.5092 7.46267 17.4297 7.86537 17.2706C8.27304 17.1115 8.58873 16.8903 8.81246 16.6069C9.03618 16.3235 9.14804 15.9979 9.14804 15.63C9.14804 15.2869 9.04612 14.9986 8.84229 14.7649C8.64342 14.5312 8.3501 14.3324 7.96231 14.1683C7.5795 14.0043 7.10969 13.8551 6.55287 13.7209L4.88987 13.3033C3.60223 12.9901 2.58554 12.5004 1.8398 11.8342C1.09406 11.168 0.723677 10.2706 0.728649 9.14204C0.723677 8.21733 0.969771 7.40945 1.46693 6.7184C1.96906 6.02734 2.65763 5.48793 3.53263 5.10014C4.40763 4.71236 5.40194 4.51847 6.51558 4.51847C7.6491 4.51847 8.63845 4.71236 9.48362 5.10014C10.3338 5.48793 10.995 6.02734 11.4673 6.7184C11.9396 7.40945 12.1832 8.20987 12.1981 9.11967H9.10329ZM17.7856 20.2163C17.0547 20.2163 16.4035 20.0895 15.8317 19.8359C15.26 19.5774 14.8076 19.1971 14.4745 18.695C14.1464 18.1879 13.9823 17.5565 13.9823 16.8008C13.9823 16.1644 14.0991 15.63 14.3328 15.1974C14.5665 14.7649 14.8846 14.4169 15.2873 14.1534C15.69 13.8899 16.1474 13.6911 16.6595 13.5568C17.1765 13.4226 17.7184 13.3281 18.2852 13.2734C18.9514 13.2038 19.4883 13.1392 19.896 13.0795C20.3037 13.0149 20.5995 12.9205 20.7834 12.7962C20.9674 12.6719 21.0593 12.4879 21.0593 12.2443V12.1996C21.0593 11.7273 20.9102 11.3619 20.6119 11.1033C20.3186 10.8448 19.901 10.7156 19.3591 10.7156C18.7873 10.7156 18.3324 10.8423 17.9944 11.0959C17.6563 11.3445 17.4326 11.6577 17.3232 12.0355L14.385 11.7969C14.5341 11.1009 14.8275 10.4993 15.265 9.99219C15.7025 9.48011 16.2667 9.08736 16.9578 8.81392C17.6538 8.53551 18.4592 8.39631 19.374 8.39631C20.0103 8.39631 20.6194 8.47088 21.201 8.62003C21.7877 8.76918 22.3072 9.00035 22.7596 9.31356C23.217 9.62678 23.5775 10.0295 23.841 10.5217C24.1044 11.0089 24.2362 11.593 24.2362 12.2741V20H21.2234V18.4116H21.1339C20.95 18.7695 20.7039 19.0852 20.3956 19.3587C20.0874 19.6271 19.717 19.8384 19.2845 19.9925C18.852 20.1417 18.3523 20.2163 17.7856 20.2163ZM18.6954 18.0238C19.1627 18.0238 19.5753 17.9318 19.9333 17.7479C20.2912 17.5589 20.5721 17.3054 20.776 16.9872C20.9798 16.669 21.0817 16.3086 21.0817 15.9059V14.6903C20.9823 14.755 20.8456 14.8146 20.6716 14.8693C20.5025 14.919 20.3111 14.9663 20.0973 15.011C19.8836 15.0508 19.6698 15.0881 19.456 15.1229C19.2422 15.1527 19.0483 15.18 18.8743 15.2049C18.5015 15.2596 18.1758 15.3466 17.8974 15.4659C17.619 15.5852 17.4027 15.7468 17.2486 15.9506C17.0945 16.1495 17.0174 16.3981 17.0174 16.6964C17.0174 17.1289 17.1741 17.4595 17.4873 17.6882C17.8054 17.9119 18.2081 18.0238 18.6954 18.0238ZM36.9697 8.54545L32.9651 20H29.3855L25.3809 8.54545H28.7367L31.1156 16.7411H31.235L33.6064 8.54545H36.9697ZM43.4464 20.2237C42.2682 20.2237 41.254 19.9851 40.4038 19.5078C39.5586 19.0256 38.9074 18.3445 38.45 17.4645C37.9926 16.5795 37.7639 15.533 37.7639 14.3249C37.7639 13.1467 37.9926 12.1126 38.45 11.2227C38.9074 10.3327 39.5512 9.6392 40.3814 9.14204C41.2167 8.64489 42.1961 8.39631 43.3196 8.39631C44.0753 8.39631 44.7788 8.51811 45.4301 8.76172C46.0863 9.00035 46.6581 9.3608 47.1453 9.84304C47.6375 10.3253 48.0203 10.9318 48.2937 11.6626C48.5672 12.3885 48.7039 13.2386 48.7039 14.2131V15.0856H39.0316V13.1168H45.7135C45.7135 12.6594 45.614 12.2543 45.4152 11.9013C45.2163 11.5483 44.9404 11.2724 44.5874 11.0735C44.2394 10.8697 43.8342 10.7678 43.3718 10.7678C42.8896 10.7678 42.462 10.8796 42.0892 11.1033C41.7213 11.3221 41.4329 11.6179 41.2241 11.9908C41.0153 12.3587 40.9084 12.7688 40.9035 13.2212V15.093C40.9035 15.6598 41.0079 16.1495 41.2167 16.5621C41.4304 16.9748 41.7312 17.293 42.119 17.5167C42.5068 17.7404 42.9667 17.8523 43.4986 17.8523C43.8516 17.8523 44.1748 17.8026 44.4681 17.7031C44.7614 17.6037 45.0125 17.4545 45.2213 17.2557C45.4301 17.0568 45.5892 16.8132 45.6986 16.5249L48.6368 16.7188C48.4876 17.4247 48.1819 18.0412 47.7195 18.5682C47.2621 19.0902 46.6705 19.4979 45.9446 19.7912C45.2238 20.0795 44.391 20.2237 43.4464 20.2237Z" fill="white"/>
<mask id="mask0_0_1" style="mask-type:alpha" maskUnits="userSpaceOnUse" x="54" y="0" width="24" height="25">
<rect x="54" y="0.5" width="24" height="24" fill="#D9D9D9"/>
</mask>
<g mask="url(#mask0_0_1)">
<path d="M63.5506 15.65L72.0256 7.175C72.2256 6.975 72.4631 6.875 72.7381 6.875C73.0131 6.875 73.2506 6.975 73.4506 7.175C73.6506 7.375 73.7506 7.6125 73.7506 7.8875C73.7506 8.1625 73.6506 8.4 73.4506 8.6L64.2506 17.8C64.0506 18 63.8172 18.1 63.5506 18.1C63.2839 18.1 63.0506 18 62.8506 17.8L58.5506 13.5C58.3506 13.3 58.2547 13.0625 58.2631 12.7875C58.2714 12.5125 58.3756 12.275 58.5756 12.075C58.7756 11.875 59.0131 11.775 59.2881 11.775C59.5631 11.775 59.8006 11.875 60.0006 12.075L63.5506 15.65Z" fill="white"/>
</g>
</svg>
