<svg width="151" height="24" viewBox="0 0 151 24" fill="none" xmlns="http://www.w3.org/2000/svg">
<path d="M14.0514 10.0742H10.7851C10.7255 9.65163 10.6036 9.27628 10.4197 8.94815C10.2358 8.61506 9.9996 8.33168 9.71125 8.09801C9.4229 7.86435 9.0898 7.68537 8.71196 7.56108C8.33909 7.43679 7.9339 7.37465 7.4964 7.37465C6.70592 7.37465 6.01736 7.57102 5.43071 7.96378C4.84406 8.35156 4.38916 8.91832 4.06601 9.66406C3.74285 10.4048 3.58128 11.3047 3.58128 12.3636C3.58128 13.4524 3.74285 14.3672 4.06601 15.108C4.39413 15.8487 4.85152 16.408 5.43817 16.7859C6.02481 17.1637 6.70344 17.3526 7.47403 17.3526C7.90656 17.3526 8.30677 17.2955 8.67467 17.1811C9.04754 17.0668 9.37815 16.9002 9.6665 16.6815C9.95486 16.4577 10.1935 16.1868 10.3824 15.8686C10.5763 15.5504 10.7105 15.1875 10.7851 14.7798L14.0514 14.7947C13.9669 15.4957 13.7556 16.1719 13.4176 16.8232C13.0845 17.4695 12.6345 18.0487 12.0678 18.5607C11.506 19.0678 10.8348 19.4705 10.0543 19.7688C9.27872 20.0621 8.40123 20.2088 7.42183 20.2088C6.05961 20.2088 4.84157 19.9006 3.76771 19.2841C2.69882 18.6676 1.85365 17.7752 1.2322 16.6069C0.615723 15.4386 0.307484 14.0241 0.307484 12.3636C0.307484 10.6982 0.620694 9.28125 1.24711 8.11293C1.87354 6.9446 2.72368 6.05469 3.79754 5.44318C4.8714 4.8267 6.0795 4.51847 7.42183 4.51847C8.30677 4.51847 9.12709 4.64276 9.88277 4.89133C10.6434 5.13991 11.3171 5.50284 11.9037 5.98011C12.4904 6.45241 12.9676 7.0316 13.3355 7.71768C13.7084 8.40376 13.947 9.18928 14.0514 10.0742ZM16.3073 20V8.54545H19.3872V10.544H19.5065C19.7153 9.8331 20.0658 9.29616 20.558 8.93324C21.0502 8.56534 21.617 8.38139 22.2583 8.38139C22.4174 8.38139 22.5889 8.39133 22.7729 8.41122C22.9568 8.43111 23.1184 8.45845 23.2576 8.49325V11.3121C23.1084 11.2674 22.9021 11.2276 22.6386 11.1928C22.3751 11.158 22.134 11.1406 21.9153 11.1406C21.4479 11.1406 21.0303 11.2425 20.6624 11.4464C20.2995 11.6452 20.0111 11.9237 19.7974 12.2816C19.5886 12.6396 19.4842 13.0522 19.4842 13.5195V20H16.3073ZM29.587 20.2237C28.4088 20.2237 27.3946 19.9851 26.5444 19.5078C25.6993 19.0256 25.048 18.3445 24.5906 17.4645C24.1332 16.5795 23.9045 15.533 23.9045 14.3249C23.9045 13.1467 24.1332 12.1126 24.5906 11.2227C25.048 10.3327 25.6918 9.6392 26.5221 9.14204C27.3573 8.64489 28.3367 8.39631 29.4603 8.39631C30.216 8.39631 30.9194 8.51811 31.5707 8.76172C32.227 9.00035 32.7987 9.3608 33.2859 9.84304C33.7781 10.3253 34.1609 10.9318 34.4343 11.6626C34.7078 12.3885 34.8445 13.2386 34.8445 14.2131V15.0856H25.1723V13.1168H31.8541C31.8541 12.6594 31.7547 12.2543 31.5558 11.9013C31.3569 11.5483 31.081 11.2724 30.728 11.0735C30.38 10.8697 29.9748 10.7678 29.5125 10.7678C29.0302 10.7678 28.6027 10.8796 28.2298 11.1033C27.8619 11.3221 27.5736 11.6179 27.3647 11.9908C27.1559 12.3587 27.0491 12.7688 27.0441 13.2212V15.093C27.0441 15.6598 27.1485 16.1495 27.3573 16.5621C27.5711 16.9748 27.8718 17.293 28.2596 17.5167C28.6474 17.7404 29.1073 17.8523 29.6392 17.8523C29.9922 17.8523 30.3154 17.8026 30.6087 17.7031C30.902 17.6037 31.1531 17.4545 31.3619 17.2557C31.5707 17.0568 31.7298 16.8132 31.8392 16.5249L34.7774 16.7188C34.6282 17.4247 34.3225 18.0412 33.8601 18.5682C33.4027 19.0902 32.8111 19.4979 32.0853 19.7912C31.3644 20.0795 30.5316 20.2237 29.587 20.2237ZM40.184 20.2163C39.4532 20.2163 38.8019 20.0895 38.2302 19.8359C37.6584 19.5774 37.206 19.1971 36.8729 18.695C36.5448 18.1879 36.3807 17.5565 36.3807 16.8008C36.3807 16.1644 36.4976 15.63 36.7312 15.1974C36.9649 14.7649 37.2831 14.4169 37.6858 14.1534C38.0885 13.8899 38.5459 13.6911 39.0579 13.5568C39.575 13.4226 40.1169 13.3281 40.6836 13.2734C41.3498 13.2038 41.8868 13.1392 42.2944 13.0795C42.7021 13.0149 42.9979 12.9205 43.1819 12.7962C43.3658 12.6719 43.4578 12.4879 43.4578 12.2443V12.1996C43.4578 11.7273 43.3086 11.3619 43.0103 11.1033C42.717 10.8448 42.2994 10.7156 41.7575 10.7156C41.1858 10.7156 40.7309 10.8423 40.3928 11.0959C40.0547 11.3445 39.831 11.6577 39.7216 12.0355L36.7834 11.7969C36.9326 11.1009 37.2259 10.4993 37.6634 9.99219C38.1009 9.48011 38.6652 9.08736 39.3562 8.81392C40.0522 8.53551 40.8576 8.39631 41.7724 8.39631C42.4088 8.39631 43.0178 8.47088 43.5995 8.62003C44.1861 8.76918 44.7057 9.00035 45.1581 9.31356C45.6155 9.62678 45.9759 10.0295 46.2394 10.5217C46.5029 11.0089 46.6346 11.593 46.6346 12.2741V20H43.6218V18.4116H43.5324C43.3484 18.7695 43.1023 19.0852 42.7941 19.3587C42.4858 19.6271 42.1155 19.8384 41.6829 19.9925C41.2504 20.1417 40.7508 20.2163 40.184 20.2163ZM41.0938 18.0238C41.5611 18.0238 41.9738 17.9318 42.3317 17.7479C42.6897 17.5589 42.9706 17.3054 43.1744 16.9872C43.3782 16.669 43.4802 16.3086 43.4802 15.9059V14.6903C43.3807 14.755 43.244 14.8146 43.07 14.8693C42.901 14.919 42.7096 14.9663 42.4958 15.011C42.282 15.0508 42.0682 15.0881 41.8544 15.1229C41.6407 15.1527 41.4468 15.18 41.2728 15.2049C40.8999 15.2596 40.5743 15.3466 40.2959 15.4659C40.0174 15.5852 39.8012 15.7468 39.6471 15.9506C39.4929 16.1495 39.4159 16.3981 39.4159 16.6964C39.4159 17.1289 39.5725 17.4595 39.8857 17.6882C40.2039 17.9119 40.6066 18.0238 41.0938 18.0238ZM55.192 8.54545V10.9318H48.2939V8.54545H55.192ZM49.86 5.80114H53.0368V16.4801C53.0368 16.7734 53.0815 17.0021 53.171 17.1662C53.2605 17.3253 53.3848 17.4371 53.5439 17.5018C53.708 17.5664 53.8969 17.5987 54.1107 17.5987C54.2598 17.5987 54.409 17.5863 54.5581 17.5614C54.7073 17.5316 54.8216 17.5092 54.9011 17.4943L55.4008 19.8583C55.2417 19.908 55.018 19.9652 54.7296 20.0298C54.4413 20.0994 54.0908 20.1417 53.6781 20.1566C52.9125 20.1864 52.2413 20.0845 51.6646 19.8509C51.0929 19.6172 50.6479 19.2543 50.3298 18.7621C50.0116 18.2699 49.855 17.6484 49.86 16.8977V5.80114ZM62.3585 20.2237C61.1803 20.2237 60.1661 19.9851 59.3159 19.5078C58.4707 19.0256 57.8195 18.3445 57.3621 17.4645C56.9047 16.5795 56.676 15.533 56.676 14.3249C56.676 13.1467 56.9047 12.1126 57.3621 11.2227C57.8195 10.3327 58.4633 9.6392 59.2935 9.14204C60.1288 8.64489 61.1082 8.39631 62.2318 8.39631C62.9874 8.39631 63.6909 8.51811 64.3422 8.76172C64.9984 9.00035 65.5702 9.3608 66.0574 9.84304C66.5496 10.3253 66.9324 10.9318 67.2058 11.6626C67.4793 12.3885 67.616 13.2386 67.616 14.2131V15.0856H57.9438V13.1168H64.6256C64.6256 12.6594 64.5261 12.2543 64.3273 11.9013C64.1284 11.5483 63.8525 11.2724 63.4995 11.0735C63.1515 10.8697 62.7463 10.7678 62.284 10.7678C61.8017 10.7678 61.3742 10.8796 61.0013 11.1033C60.6334 11.3221 60.345 11.6179 60.1362 11.9908C59.9274 12.3587 59.8205 12.7688 59.8156 13.2212V15.093C59.8156 15.6598 59.92 16.1495 60.1288 16.5621C60.3426 16.9748 60.6433 17.293 61.0311 17.5167C61.4189 17.7404 61.8788 17.8523 62.4107 17.8523C62.7637 17.8523 63.0869 17.8026 63.3802 17.7031C63.6735 17.6037 63.9246 17.4545 64.1334 17.2557C64.3422 17.0568 64.5013 16.8132 64.6107 16.5249L67.5489 16.7188C67.3997 17.4247 67.094 18.0412 66.6316 18.5682C66.1742 19.0902 65.5826 19.4979 64.8568 19.7912C64.1359 20.0795 63.3031 20.2237 62.3585 20.2237ZM74.0275 7.38956V4.72727H86.5708V7.38956H81.895V20H78.7033V7.38956H74.0275ZM90.2846 20.2163C89.5538 20.2163 88.9025 20.0895 88.3307 19.8359C87.759 19.5774 87.3066 19.1971 86.9735 18.695C86.6454 18.1879 86.4813 17.5565 86.4813 16.8008C86.4813 16.1644 86.5981 15.63 86.8318 15.1974C87.0655 14.7649 87.3837 14.4169 87.7864 14.1534C88.1891 13.8899 88.6464 13.6911 89.1585 13.5568C89.6756 13.4226 90.2175 13.3281 90.7842 13.2734C91.4504 13.2038 91.9873 13.1392 92.395 13.0795C92.8027 13.0149 93.0985 12.9205 93.2824 12.7962C93.4664 12.6719 93.5584 12.4879 93.5584 12.2443V12.1996C93.5584 11.7273 93.4092 11.3619 93.1109 11.1033C92.8176 10.8448 92.4 10.7156 91.8581 10.7156C91.2864 10.7156 90.8315 10.8423 90.4934 11.0959C90.1553 11.3445 89.9316 11.6577 89.8222 12.0355L86.884 11.7969C87.0332 11.1009 87.3265 10.4993 87.764 9.99219C88.2015 9.48011 88.7658 9.08736 89.4568 8.81392C90.1528 8.53551 90.9582 8.39631 91.873 8.39631C92.5094 8.39631 93.1184 8.47088 93.7001 8.62003C94.2867 8.76918 94.8062 9.00035 95.2587 9.31356C95.716 9.62678 96.0765 10.0295 96.34 10.5217C96.6035 11.0089 96.7352 11.593 96.7352 12.2741V20H93.7224V18.4116H93.6329C93.449 18.7695 93.2029 19.0852 92.8947 19.3587C92.5864 19.6271 92.216 19.8384 91.7835 19.9925C91.351 20.1417 90.8513 20.2163 90.2846 20.2163ZM91.1944 18.0238C91.6617 18.0238 92.0744 17.9318 92.4323 17.7479C92.7903 17.5589 93.0712 17.3054 93.275 16.9872C93.4788 16.669 93.5807 16.3086 93.5807 15.9059V14.6903C93.4813 14.755 93.3446 14.8146 93.1706 14.8693C93.0016 14.919 92.8101 14.9663 92.5964 15.011C92.3826 15.0508 92.1688 15.0881 91.955 15.1229C91.7413 15.1527 91.5474 15.18 91.3734 15.2049C91.0005 15.2596 90.6748 15.3466 90.3964 15.4659C90.118 15.5852 89.9018 15.7468 89.7476 15.9506C89.5935 16.1495 89.5165 16.3981 89.5165 16.6964C89.5165 17.1289 89.6731 17.4595 89.9863 17.6882C90.3045 17.9119 90.7072 18.0238 91.1944 18.0238ZM108.73 11.8118L105.822 11.9908C105.772 11.7422 105.665 11.5185 105.501 11.3196C105.337 11.1158 105.121 10.9542 104.853 10.8349C104.589 10.7106 104.273 10.6484 103.905 10.6484C103.413 10.6484 102.998 10.7528 102.66 10.9616C102.322 11.1655 102.153 11.4389 102.153 11.782C102.153 12.0554 102.262 12.2866 102.481 12.4755C102.7 12.6644 103.075 12.8161 103.607 12.9304L105.68 13.348C106.794 13.5767 107.624 13.9446 108.171 14.4517C108.718 14.9588 108.991 15.625 108.991 16.4503C108.991 17.201 108.77 17.8597 108.328 18.4265C107.89 18.9933 107.289 19.4357 106.523 19.7539C105.762 20.0671 104.885 20.2237 103.891 20.2237C102.374 20.2237 101.166 19.908 100.266 19.2766C99.3714 18.6403 98.8469 17.7752 98.6928 16.6815L101.817 16.5174C101.912 16.9798 102.141 17.3327 102.504 17.5763C102.866 17.815 103.331 17.9343 103.898 17.9343C104.455 17.9343 104.902 17.8274 105.24 17.6136C105.583 17.3949 105.757 17.114 105.762 16.771C105.757 16.4826 105.636 16.2464 105.397 16.0625C105.158 15.8736 104.79 15.7294 104.293 15.63L102.31 15.2347C101.191 15.011 100.358 14.6232 99.8114 14.0714C99.2695 13.5195 98.9985 12.8161 98.9985 11.9609C98.9985 11.2251 99.1974 10.5913 99.5951 10.0593C99.9978 9.52734 100.562 9.11719 101.288 8.82883C102.019 8.54048 102.874 8.39631 103.853 8.39631C105.3 8.39631 106.439 8.70206 107.269 9.31356C108.104 9.92507 108.591 10.7578 108.73 11.8118ZM113.87 16.7038L113.878 12.8931H114.34L118.009 8.54545H121.656L116.727 14.3026H115.973L113.87 16.7038ZM110.992 20V4.72727H114.169V20H110.992ZM118.151 20L114.78 15.011L116.898 12.7663L121.872 20H118.151Z" fill="white"/>
<mask id="mask0_0_1" style="mask-type:alpha" maskUnits="userSpaceOnUse" x="126" y="0" width="25" height="24">
<rect x="126.249" width="24" height="24" fill="#D9D9D9"/>
</mask>
<g mask="url(#mask0_0_1)">
<path d="M135.799 15.15L144.274 6.675C144.474 6.475 144.712 6.375 144.987 6.375C145.262 6.375 145.499 6.475 145.699 6.675C145.899 6.875 145.999 7.1125 145.999 7.3875C145.999 7.6625 145.899 7.9 145.699 8.1L136.499 17.3C136.299 17.5 136.066 17.6 135.799 17.6C135.533 17.6 135.299 17.5 135.099 17.3L130.799 13C130.599 12.8 130.503 12.5625 130.512 12.2875C130.52 12.0125 130.624 11.775 130.824 11.575C131.024 11.375 131.262 11.275 131.537 11.275C131.812 11.275 132.049 11.375 132.249 11.575L135.799 15.15Z" fill="white"/>
</g>
</svg>
