<svg width="363" height="189" viewBox="0 0 363 189" fill="none" xmlns="http://www.w3.org/2000/svg">
<path d="M5.85582 157.5V113.136H35.7493V120.87H15.2354V131.441H34.2113V139.174H15.2354V149.767H35.8359V157.5H5.85582ZM55.2938 158.042C52.7665 158.042 50.4776 157.392 48.4269 156.092C46.3907 154.778 44.7733 152.85 43.5747 150.308C42.3905 147.752 41.7984 144.618 41.7984 140.907C41.7984 137.094 42.4121 133.925 43.6396 131.397C44.8672 128.856 46.499 126.957 48.5352 125.7C50.5859 124.429 52.8315 123.794 55.2721 123.794C57.135 123.794 58.6875 124.112 59.9294 124.747C61.1858 125.368 62.1967 126.148 62.9621 127.087C63.7419 128.011 64.334 128.921 64.7384 129.816H65.02V113.136H74.2263V157.5H65.1283V152.171H64.7384C64.3051 153.095 63.6914 154.012 62.8971 154.922C62.1173 155.818 61.0992 156.561 59.8428 157.153C58.6008 157.746 57.0845 158.042 55.2938 158.042ZM58.2181 150.698C59.7056 150.698 60.962 150.294 61.9873 149.485C63.0271 148.662 63.8213 147.514 64.3701 146.041C64.9333 144.568 65.2149 142.842 65.2149 140.864C65.2149 138.885 64.9405 137.167 64.3918 135.708C63.843 134.25 63.0487 133.123 62.009 132.329C60.9692 131.535 59.7056 131.137 58.2181 131.137C56.7018 131.137 55.4237 131.549 54.384 132.372C53.3442 133.195 52.5571 134.336 52.0228 135.795C51.4885 137.253 51.2213 138.943 51.2213 140.864C51.2213 142.799 51.4885 144.51 52.0228 145.998C52.5716 147.471 53.3586 148.626 54.384 149.463C55.4237 150.287 56.7018 150.698 58.2181 150.698ZM81.8134 157.5V124.227H91.0414V157.5H81.8134ZM86.449 119.938C85.0771 119.938 83.9002 119.483 82.9181 118.574C81.9506 117.649 81.4668 116.545 81.4668 115.259C81.4668 113.988 81.9506 112.898 82.9181 111.988C83.9002 111.064 85.0771 110.602 86.449 110.602C87.821 110.602 88.9907 111.064 89.9583 111.988C90.9403 112.898 91.4313 113.988 91.4313 115.259C91.4313 116.545 90.9403 117.649 89.9583 118.574C88.9907 119.483 87.821 119.938 86.449 119.938ZM116.131 124.227V131.159H96.094V124.227H116.131ZM100.643 116.256H109.871V147.276C109.871 148.128 110.001 148.792 110.261 149.268C110.521 149.731 110.882 150.056 111.344 150.243C111.821 150.431 112.369 150.525 112.99 150.525C113.424 150.525 113.857 150.489 114.29 150.417C114.723 150.33 115.055 150.265 115.286 150.222L116.738 157.088C116.276 157.233 115.626 157.399 114.788 157.587C113.951 157.789 112.933 157.912 111.734 157.955C109.51 158.042 107.56 157.746 105.885 157.067C104.224 156.388 102.932 155.334 102.008 153.904C101.083 152.474 100.629 150.669 100.643 148.489V116.256ZM151.294 158.15C147.886 158.15 144.954 157.428 142.499 155.984C140.059 154.525 138.181 152.503 136.867 149.918C135.567 147.333 134.918 144.358 134.918 140.994C134.918 137.585 135.575 134.596 136.889 132.026C138.217 129.441 140.102 127.426 142.543 125.982C144.983 124.523 147.886 123.794 151.251 123.794C154.153 123.794 156.695 124.321 158.876 125.375C161.056 126.43 162.782 127.91 164.053 129.816C165.324 131.722 166.024 133.961 166.154 136.531H157.446C157.201 134.871 156.551 133.535 155.496 132.524C154.457 131.498 153.092 130.986 151.402 130.986C149.973 130.986 148.723 131.376 147.655 132.156C146.601 132.921 145.777 134.04 145.185 135.513C144.593 136.986 144.297 138.77 144.297 140.864C144.297 142.987 144.586 144.792 145.164 146.279C145.756 147.767 146.586 148.9 147.655 149.68C148.723 150.46 149.973 150.85 151.402 150.85C152.457 150.85 153.402 150.633 154.24 150.2C155.092 149.767 155.792 149.138 156.341 148.315C156.904 147.478 157.273 146.474 157.446 145.304H166.154C166.01 147.846 165.317 150.084 164.075 152.02C162.847 153.94 161.15 155.442 158.984 156.525C156.818 157.608 154.254 158.15 151.294 158.15ZM187.096 158.15C183.731 158.15 180.821 157.435 178.366 156.005C175.925 154.561 174.041 152.554 172.712 149.983C171.384 147.398 170.719 144.402 170.719 140.994C170.719 137.557 171.384 134.553 172.712 131.982C174.041 129.397 175.925 127.39 178.366 125.96C180.821 124.516 183.731 123.794 187.096 123.794C190.461 123.794 193.363 124.516 195.804 125.96C198.259 127.39 200.151 129.397 201.479 131.982C202.808 134.553 203.472 137.557 203.472 140.994C203.472 144.402 202.808 147.398 201.479 149.983C200.151 152.554 198.259 154.561 195.804 156.005C193.363 157.435 190.461 158.15 187.096 158.15ZM187.139 151.001C188.67 151.001 189.948 150.568 190.973 149.702C191.999 148.821 192.771 147.622 193.291 146.106C193.825 144.589 194.093 142.864 194.093 140.929C194.093 138.993 193.825 137.268 193.291 135.751C192.771 134.235 191.999 133.036 190.973 132.156C189.948 131.275 188.67 130.834 187.139 130.834C185.594 130.834 184.294 131.275 183.24 132.156C182.2 133.036 181.413 134.235 180.879 135.751C180.359 137.268 180.099 138.993 180.099 140.929C180.099 142.864 180.359 144.589 180.879 146.106C181.413 147.622 182.2 148.821 183.24 149.702C184.294 150.568 185.594 151.001 187.139 151.001ZM218.701 138.264V157.5H209.473V124.227H218.267V130.098H218.657C219.394 128.163 220.628 126.632 222.361 125.505C224.094 124.364 226.196 123.794 228.665 123.794C230.976 123.794 232.99 124.299 234.709 125.31C236.427 126.321 237.763 127.765 238.716 129.643C239.669 131.506 240.146 133.73 240.146 136.315V157.5H230.918V137.961C230.932 135.925 230.412 134.336 229.358 133.195C228.304 132.04 226.853 131.462 225.004 131.462C223.762 131.462 222.665 131.73 221.712 132.264C220.773 132.798 220.036 133.578 219.502 134.603C218.982 135.614 218.715 136.835 218.701 138.264ZM265.117 124.227V131.159H245.079V124.227H265.117ZM249.628 116.256H258.856V147.276C258.856 148.128 258.986 148.792 259.246 149.268C259.506 149.731 259.867 150.056 260.329 150.243C260.806 150.431 261.355 150.525 261.976 150.525C262.409 150.525 262.842 150.489 263.275 150.417C263.709 150.33 264.041 150.265 264.272 150.222L265.723 157.088C265.261 157.233 264.611 157.399 263.774 157.587C262.936 157.789 261.918 157.912 260.719 157.955C258.495 158.042 256.546 157.746 254.871 157.067C253.21 156.388 251.917 155.334 250.993 153.904C250.069 152.474 249.614 150.669 249.628 148.489V116.256ZM280.616 158.128C278.493 158.128 276.601 157.76 274.94 157.023C273.28 156.272 271.965 155.168 270.998 153.709C270.045 152.236 269.568 150.402 269.568 148.207C269.568 146.359 269.908 144.806 270.586 143.55C271.265 142.293 272.189 141.282 273.359 140.517C274.529 139.752 275.857 139.174 277.345 138.784C278.847 138.394 280.421 138.12 282.067 137.961C284.002 137.759 285.562 137.571 286.746 137.398C287.93 137.21 288.79 136.936 289.324 136.575C289.858 136.214 290.125 135.679 290.125 134.972V134.842C290.125 133.47 289.692 132.408 288.826 131.657C287.974 130.906 286.761 130.531 285.186 130.531C283.526 130.531 282.204 130.899 281.222 131.636C280.24 132.358 279.59 133.268 279.273 134.365L270.738 133.672C271.171 131.65 272.023 129.903 273.294 128.43C274.565 126.942 276.204 125.801 278.211 125.007C280.233 124.198 282.573 123.794 285.23 123.794C287.078 123.794 288.847 124.011 290.537 124.444C292.241 124.877 293.75 125.549 295.064 126.458C296.393 127.368 297.44 128.538 298.205 129.968C298.971 131.383 299.353 133.08 299.353 135.058V157.5H290.602V152.886H290.342C289.808 153.926 289.093 154.843 288.197 155.637C287.302 156.417 286.226 157.031 284.97 157.478C283.713 157.912 282.262 158.128 280.616 158.128ZM283.259 151.76C284.616 151.76 285.815 151.492 286.854 150.958C287.894 150.409 288.71 149.673 289.302 148.749C289.894 147.824 290.19 146.777 290.19 145.608V142.077C289.902 142.264 289.504 142.438 288.999 142.597C288.508 142.741 287.952 142.878 287.331 143.008C286.71 143.124 286.089 143.232 285.468 143.333C284.847 143.42 284.284 143.499 283.778 143.571C282.695 143.73 281.749 143.983 280.941 144.33C280.132 144.676 279.504 145.145 279.056 145.738C278.608 146.315 278.385 147.037 278.385 147.904C278.385 149.16 278.839 150.121 279.749 150.785C280.674 151.435 281.843 151.76 283.259 151.76ZM321.546 158.15C318.138 158.15 315.206 157.428 312.751 155.984C310.311 154.525 308.433 152.503 307.119 149.918C305.819 147.333 305.17 144.358 305.17 140.994C305.17 137.585 305.827 134.596 307.141 132.026C308.469 129.441 310.354 127.426 312.795 125.982C315.235 124.523 318.138 123.794 321.503 123.794C324.405 123.794 326.947 124.321 329.128 125.375C331.308 126.43 333.034 127.91 334.305 129.816C335.576 131.722 336.276 133.961 336.406 136.531H327.698C327.452 134.871 326.803 133.535 325.748 132.524C324.709 131.498 323.344 130.986 321.654 130.986C320.225 130.986 318.975 131.376 317.907 132.156C316.853 132.921 316.029 134.04 315.437 135.513C314.845 136.986 314.549 138.77 314.549 140.864C314.549 142.987 314.838 144.792 315.416 146.279C316.008 147.767 316.838 148.9 317.907 149.68C318.975 150.46 320.225 150.85 321.654 150.85C322.709 150.85 323.654 150.633 324.492 150.2C325.344 149.767 326.044 149.138 326.593 148.315C327.156 147.478 327.525 146.474 327.698 145.304H336.406C336.262 147.846 335.568 150.084 334.327 152.02C333.099 153.94 331.402 155.442 329.236 156.525C327.07 157.608 324.506 158.15 321.546 158.15ZM360.012 124.227V131.159H339.975V124.227H360.012ZM344.524 116.256H353.752V147.276C353.752 148.128 353.882 148.792 354.142 149.268C354.402 149.731 354.763 150.056 355.225 150.243C355.701 150.431 356.25 150.525 356.871 150.525C357.304 150.525 357.738 150.489 358.171 150.417C358.604 150.33 358.936 150.265 359.167 150.222L360.619 157.088C360.157 157.233 359.507 157.399 358.669 157.587C357.832 157.789 356.813 157.912 355.615 157.955C353.391 158.042 351.441 157.746 349.766 157.067C348.105 156.388 346.813 155.334 345.889 153.904C344.964 152.474 344.509 150.669 344.524 148.489V116.256Z" fill="white"/>
<path d="M92 187.5H2" stroke="#29ABE2" stroke-width="3" stroke-linecap="round"/>
<path d="M40.1394 0H28.1931V13.8957H40.1394V0Z" fill="white"/>
<path d="M28.1931 25.197H40.1394V44.7947C40.194 49.5105 38.8665 54.1362 36.3258 58.0839C33.8171 61.9194 28.9742 66.4829 20.0145 66.4829C10.2553 66.4829 4.56707 61.8167 1.4978 59.2597L9.03314 49.8621C12.0289 52.3352 14.9144 54.3696 20.0605 54.3696C23.9568 54.3696 25.5098 52.7645 26.4196 51.3646C27.6563 49.4203 28.2961 47.1465 28.2574 44.8321L28.1931 25.197Z" fill="white"/>
<path d="M22.1006 16.4248H10.1543V28.5567H22.1006V16.4248Z" fill="#29ABE2"/>
<path d="M46.3973 60.7904C46.3973 63.3754 45.1016 64.7659 43.2913 64.7659C41.481 64.7659 40.2955 63.1141 40.2955 60.9211C40.2955 58.728 41.5177 56.9922 43.3924 56.9922C45.267 56.9922 46.3973 58.7 46.3973 60.7904ZM41.6831 60.8931C41.6831 62.4516 42.2988 63.5994 43.3556 63.5994C44.4124 63.5994 45.0097 62.3862 45.0097 60.7997C45.0097 59.4092 44.4583 58.1027 43.3556 58.1027C42.2529 58.1027 41.6831 59.3626 41.6831 60.8931Z" fill="white"/>
<path d="M48.7682 57.104V64.6445H47.4449V57.104H48.7682Z" fill="white"/>
<path d="M50.2018 64.6445V57.104H51.6721L53.2527 60.2116C53.6596 61.0242 54.0216 61.8592 54.337 62.7127C54.2543 61.7795 54.2176 60.7063 54.2176 59.5117V57.104H55.4306V64.6445H54.0613L52.4624 61.4715C52.0391 60.638 51.6617 59.7812 51.3321 58.9051C51.3321 59.8384 51.3964 60.8929 51.3964 62.1901V64.6351L50.2018 64.6445Z" fill="white"/>
</svg>
