<svg width="57" height="25" viewBox="0 0 57 25" fill="none" xmlns="http://www.w3.org/2000/svg">
<path d="M15.0443 12.7604C15.0443 14.4258 14.7286 15.8428 14.0973 17.0111C13.4708 18.1794 12.6157 19.0718 11.5319 19.6883C10.4531 20.2998 9.24001 20.6055 7.89271 20.6055C6.53547 20.6055 5.31743 20.2973 4.23859 19.6808C3.15976 19.0643 2.30713 18.1719 1.68071 17.0036C1.05429 15.8353 0.741078 14.4209 0.741078 12.7604C0.741078 11.0949 1.05429 9.67798 1.68071 8.50965C2.30713 7.34133 3.15976 6.45142 4.23859 5.83991C5.31743 5.22343 6.53547 4.91519 7.89271 4.91519C9.24001 4.91519 10.4531 5.22343 11.5319 5.83991C12.6157 6.45142 13.4708 7.34133 14.0973 8.50965C14.7286 9.67798 15.0443 11.0949 15.0443 12.7604ZM11.7706 12.7604C11.7706 11.6815 11.609 10.7717 11.2858 10.031C10.9676 9.29019 10.5177 8.7284 9.93604 8.34559C9.35436 7.96278 8.67325 7.77137 7.89271 7.77137C7.11217 7.77137 6.43106 7.96278 5.84939 8.34559C5.26771 8.7284 4.8153 9.29019 4.49214 10.031C4.17396 10.7717 4.01487 11.6815 4.01487 12.7604C4.01487 13.8392 4.17396 14.749 4.49214 15.4898C4.8153 16.2305 5.26771 16.7923 5.84939 17.1751C6.43106 17.558 7.11217 17.7494 7.89271 17.7494C8.67325 17.7494 9.35436 17.558 9.93604 17.1751C10.5177 16.7923 10.9676 16.2305 11.2858 15.4898C11.609 14.749 11.7706 13.8392 11.7706 12.7604ZM20.2552 17.1006L20.2627 13.2898H20.725L24.394 8.94218H28.0407L23.1114 14.6993H22.3582L20.2552 17.1006ZM17.3766 20.3967V5.124H20.5535V20.3967H17.3766ZM24.5357 20.3967L21.165 15.4077L23.2829 13.1631L28.257 20.3967H24.5357Z" fill="white"/>
<mask id="mask0_45_2487" style="mask-type:alpha" maskUnits="userSpaceOnUse" x="32" y="0" width="25" height="25">
<rect x="32.6821" y="0.896729" width="24" height="24" fill="#D9D9D9"/>
</mask>
<g mask="url(#mask0_45_2487)">
<path d="M42.2328 16.0467L50.7078 7.57173C50.9078 7.37173 51.1453 7.27173 51.4203 7.27173C51.6953 7.27173 51.9328 7.37173 52.1328 7.57173C52.3328 7.77173 52.4328 8.00923 52.4328 8.28423C52.4328 8.55923 52.3328 8.79673 52.1328 8.99673L42.9328 18.1967C42.7328 18.3967 42.4995 18.4967 42.2328 18.4967C41.9662 18.4967 41.7328 18.3967 41.5328 18.1967L37.2328 13.8967C37.0328 13.6967 36.937 13.4592 36.9453 13.1842C36.9537 12.9092 37.0578 12.6717 37.2578 12.4717C37.4578 12.2717 37.6953 12.1717 37.9703 12.1717C38.2453 12.1717 38.4828 12.2717 38.6828 12.4717L42.2328 16.0467Z" fill="white"/>
</g>
</svg>
