<svg width="128" height="32" viewBox="0 0 128 32" fill="none" xmlns="http://www.w3.org/2000/svg">
<path d="M3.95987 24H0.499645L5.77202 8.72727H9.93324L15.1982 24H11.7379L7.91229 12.2173H7.79297L3.95987 24ZM3.74361 17.9968H11.9169V20.5174H3.74361V17.9968ZM20.6644 24.1864C19.7944 24.1864 19.0064 23.9627 18.3004 23.5153C17.5994 23.0629 17.0426 22.3991 16.63 21.5241C16.2223 20.6442 16.0185 19.5653 16.0185 18.2876C16.0185 16.9751 16.2298 15.8839 16.6523 15.0138C17.0749 14.1388 17.6367 13.4851 18.3377 13.0526C19.0437 12.6151 19.8168 12.3963 20.657 12.3963C21.2983 12.3963 21.8327 12.5057 22.2603 12.7244C22.6928 12.9382 23.0408 13.2067 23.3043 13.5298C23.5728 13.848 23.7766 14.1612 23.9158 14.4695H24.0128V8.72727H27.1822V24H24.0501V22.1655H23.9158C23.7667 22.4837 23.5554 22.7994 23.282 23.1126C23.0135 23.4208 22.663 23.6768 22.2305 23.8807C21.8029 24.0845 21.2809 24.1864 20.6644 24.1864ZM21.6712 21.6584C22.1832 21.6584 22.6158 21.5192 22.9688 21.2408C23.3267 20.9574 23.6001 20.5621 23.7891 20.055C23.983 19.5479 24.0799 18.9538 24.0799 18.2727C24.0799 17.5916 23.9854 17 23.7965 16.4979C23.6076 15.9957 23.3342 15.608 22.9762 15.3345C22.6183 15.0611 22.1832 14.9244 21.6712 14.9244C21.1491 14.9244 20.7092 15.0661 20.3512 15.3494C19.9933 15.6328 19.7223 16.0256 19.5384 16.5277C19.3544 17.0298 19.2624 17.6115 19.2624 18.2727C19.2624 18.9389 19.3544 19.5281 19.5384 20.0401C19.7273 20.5472 19.9982 20.945 20.3512 21.2333C20.7092 21.5167 21.1491 21.6584 21.6712 21.6584ZM34.015 24.1864C33.145 24.1864 32.357 23.9627 31.651 23.5153C30.95 23.0629 30.3932 22.3991 29.9806 21.5241C29.5729 20.6442 29.3691 19.5653 29.3691 18.2876C29.3691 16.9751 29.5803 15.8839 30.0029 15.0138C30.4255 14.1388 30.9873 13.4851 31.6883 13.0526C32.3943 12.6151 33.1673 12.3963 34.0075 12.3963C34.6489 12.3963 35.1833 12.5057 35.6109 12.7244C36.0434 12.9382 36.3914 13.2067 36.6549 13.5298C36.9234 13.848 37.1272 14.1612 37.2664 14.4695H37.3634V8.72727H40.5328V24H37.4007V22.1655H37.2664C37.1173 22.4837 36.906 22.7994 36.6325 23.1126C36.3641 23.4208 36.0136 23.6768 35.5811 23.8807C35.1535 24.0845 34.6315 24.1864 34.015 24.1864ZM35.0218 21.6584C35.5338 21.6584 35.9664 21.5192 36.3193 21.2408C36.6773 20.9574 36.9507 20.5621 37.1396 20.055C37.3335 19.5479 37.4305 18.9538 37.4305 18.2727C37.4305 17.5916 37.336 17 37.1471 16.4979C36.9582 15.9957 36.6847 15.608 36.3268 15.3345C35.9688 15.0611 35.5338 14.9244 35.0218 14.9244C34.4997 14.9244 34.0597 15.0661 33.7018 15.3494C33.3438 15.6328 33.0729 16.0256 32.8889 16.5277C32.705 17.0298 32.613 17.6115 32.613 18.2727C32.613 18.9389 32.705 19.5281 32.8889 20.0401C33.0779 20.5472 33.3488 20.945 33.7018 21.2333C34.0597 21.5167 34.4997 21.6584 35.0218 21.6584ZM54.0977 12.5455V14.9318H47.1997V12.5455H54.0977ZM48.7657 9.80114H51.9426V20.4801C51.9426 20.7734 51.9873 21.0021 52.0768 21.1662C52.1663 21.3253 52.2906 21.4371 52.4497 21.5018C52.6137 21.5664 52.8026 21.5987 53.0164 21.5987C53.1656 21.5987 53.3147 21.5863 53.4639 21.5614C53.613 21.5316 53.7274 21.5092 53.8069 21.4943L54.3066 23.8583C54.1475 23.908 53.9237 23.9652 53.6354 24.0298C53.347 24.0994 52.9965 24.1417 52.5839 24.1566C51.8183 24.1864 51.1471 24.0845 50.5704 23.8509C49.9987 23.6172 49.5537 23.2543 49.2355 22.7621C48.9173 22.2699 48.7607 21.6484 48.7657 20.8977V9.80114ZM59.4335 24.2163C58.7027 24.2163 58.0514 24.0895 57.4797 23.8359C56.9079 23.5774 56.4555 23.1971 56.1224 22.695C55.7943 22.1879 55.6302 21.5565 55.6302 20.8008C55.6302 20.1644 55.7471 19.63 55.9807 19.1974C56.2144 18.7649 56.5326 18.4169 56.9353 18.1534C57.338 17.8899 57.7954 17.6911 58.3074 17.5568C58.8245 17.4226 59.3664 17.3281 59.9332 17.2734C60.5993 17.2038 61.1363 17.1392 61.5439 17.0795C61.9516 17.0149 62.2474 16.9205 62.4314 16.7962C62.6153 16.6719 62.7073 16.4879 62.7073 16.2443V16.1996C62.7073 15.7273 62.5582 15.3619 62.2599 15.1033C61.9665 14.8448 61.5489 14.7156 61.007 14.7156C60.4353 14.7156 59.9804 14.8423 59.6423 15.0959C59.3042 15.3445 59.0805 15.6577 58.9711 16.0355L56.0329 15.7969C56.1821 15.1009 56.4754 14.4993 56.9129 13.9922C57.3504 13.4801 57.9147 13.0874 58.6057 12.8139C59.3018 12.5355 60.1072 12.3963 61.0219 12.3963C61.6583 12.3963 62.2673 12.4709 62.849 12.62C63.4356 12.7692 63.9552 13.0004 64.4076 13.3136C64.865 13.6268 65.2254 14.0295 65.4889 14.5217C65.7524 15.0089 65.8841 15.593 65.8841 16.2741V24H62.8714V22.4116H62.7819C62.5979 22.7695 62.3518 23.0852 62.0436 23.3587C61.7354 23.6271 61.365 23.8384 60.9324 23.9925C60.4999 24.1417 60.0003 24.2163 59.4335 24.2163ZM60.3433 22.0238C60.8106 22.0238 61.2233 21.9318 61.5812 21.7479C61.9392 21.5589 62.2201 21.3054 62.4239 20.9872C62.6278 20.669 62.7297 20.3086 62.7297 19.9059V18.6903C62.6302 18.755 62.4935 18.8146 62.3195 18.8693C62.1505 18.919 61.9591 18.9663 61.7453 19.011C61.5315 19.0508 61.3177 19.0881 61.104 19.1229C60.8902 19.1527 60.6963 19.18 60.5223 19.2049C60.1494 19.2596 59.8238 19.3466 59.5454 19.4659C59.267 19.5852 59.0507 19.7468 58.8966 19.9506C58.7425 20.1495 58.6654 20.3981 58.6654 20.6964C58.6654 21.1289 58.822 21.4595 59.1352 21.6882C59.4534 21.9119 59.8561 22.0238 60.3433 22.0238ZM77.8794 15.8118L74.971 15.9908C74.9213 15.7422 74.8144 15.5185 74.6503 15.3196C74.4862 15.1158 74.27 14.9542 74.0015 14.8349C73.738 14.7106 73.4223 14.6484 73.0544 14.6484C72.5622 14.6484 72.1471 14.7528 71.809 14.9616C71.471 15.1655 71.3019 15.4389 71.3019 15.782C71.3019 16.0554 71.4113 16.2866 71.6301 16.4755C71.8488 16.6644 72.2242 16.8161 72.7561 16.9304L74.8293 17.348C75.9429 17.5767 76.7732 17.9446 77.32 18.4517C77.8669 18.9588 78.1404 19.625 78.1404 20.4503C78.1404 21.201 77.9191 21.8597 77.4767 22.4265C77.0392 22.9933 76.4376 23.4357 75.672 23.7539C74.9113 24.0671 74.0338 24.2237 73.0395 24.2237C71.5232 24.2237 70.3151 23.908 69.4152 23.2766C68.5203 22.6403 67.9958 21.7752 67.8417 20.6815L70.9664 20.5174C71.0608 20.9798 71.2895 21.3327 71.6524 21.5763C72.0154 21.815 72.4802 21.9343 73.047 21.9343C73.6038 21.9343 74.0512 21.8274 74.3893 21.6136C74.7323 21.3949 74.9063 21.114 74.9113 20.771C74.9063 20.4826 74.7845 20.2464 74.5459 20.0625C74.3073 19.8736 73.9394 19.7294 73.4422 19.63L71.4585 19.2347C70.3399 19.011 69.5072 18.6232 68.9603 18.0714C68.4184 17.5195 68.1475 16.8161 68.1475 15.9609C68.1475 15.2251 68.3463 14.5913 68.7441 14.0593C69.1468 13.5273 69.711 13.1172 70.4369 12.8288C71.1677 12.5405 72.0228 12.3963 73.0022 12.3963C74.449 12.3963 75.5874 12.7021 76.4177 13.3136C77.2529 13.9251 77.7401 14.7578 77.8794 15.8118ZM83.0194 20.7038L83.0268 16.8931H83.4892L87.1582 12.5455H90.8049L85.8755 18.3026H85.1223L83.0194 20.7038ZM80.1408 24V8.72727H83.3176V24H80.1408ZM87.2999 24L83.9292 19.011L86.0471 16.7663L91.0211 24H87.2999Z" fill="white"/>
<mask id="mask0_0_1" style="mask-type:alpha" maskUnits="userSpaceOnUse" x="96" y="0" width="32" height="32">
<rect x="96" width="32" height="32" fill="#D9D9D9"/>
</mask>
<g mask="url(#mask0_0_1)">
<path d="M110.666 17.3327H102.666V14.666H110.666V6.66602H113.333V14.666H121.333V17.3327H113.333V25.3327H110.666V17.3327Z" fill="white"/>
</g>
</svg>
